<svg id="Layer_1" data-name="Layer 1" xmlns="http://www.w3.org/2000/svg" viewBox="0 0 1080 1080"><defs><style>.cls-1{fill:#fff;}.cls-2{fill:#312e2b;}.cls-3{fill:#565352;}.cls-4{fill:#777474;}.cls-5{fill:#272626;}.cls-6{fill:#f8f8f8;}.cls-7{fill:#d3d3d3;}.cls-8{fill:#464646;}</style></defs><path class="cls-1" d="M60.9,635.54V604.88A36.71,36.71,0,0,1,69.3,581a37.13,37.13,0,0,1,6-5.71,38.06,38.06,0,0,1-28.72-24.58c-2.5-6.68-2-13.85,1.58-21.3,2.41-5.06,5.94-9.76,9.68-14.73,1.21-1.62,2.44-3.25,3.66-4.94a89.15,89.15,0,0,0,5.27-8.05,20.66,20.66,0,0,0,1.33-4c.14-.53.27-1.07.4-1.61a56.77,56.77,0,0,1,4.09-12.21c3.44-6.89,8.34-11,11.59-13.66.42-.35.95-.79,1.4-1.18.47-4.15,1.68-13.31,11.49-20.19a23.07,23.07,0,0,1,13.44-4.39c.39,0,.78,0,1.16,0,10.22.52,16.74,7.79,20.63,12.13l.95,1c.69.76,1.4,1.49,2.14,2.19a58.27,58.27,0,0,1,6.49.93,22.07,22.07,0,0,1,11.31-4.15c3.59-.26,7.25-.4,10.87-.4s7.27.14,10.87.4a22,22,0,0,1,12.4,5,22.05,22.05,0,0,1,13.45-.68c3.24.86,6.42,1.84,9.45,2.89,2,.71,4,1.46,5.81,2.22a22,22,0,0,1,13.58,20.66c0,2.08-.1,4.87-.26,8,1.22.16,2.41.36,3.56.58V493.5L246.61,491c1-.18,2.45-.42,4.35-.73a50.84,50.84,0,0,1,8.19-.66,46.54,46.54,0,0,1,7.79.61,25.21,25.21,0,0,1,10.92,4.6,23.87,23.87,0,0,1,7.71,10,26.36,26.36,0,0,1,1.53,5.07c10.83.65,19.84,4.13,26.84,10.37.26.24.53.47.78.72a45.33,45.33,0,0,1,15.45-8.57,54.58,54.58,0,0,1,16.71-2.62,51.6,51.6,0,0,1,17.93,3,46.83,46.83,0,0,1,12.09,6.53c.64-.51,1.3-1,2-1.46a45,45,0,0,1,13.85-6.27,59.59,59.59,0,0,1,15.66-2,70,70,0,0,1,11.53.92,45.78,45.78,0,0,1,11.29,3.36,31.08,31.08,0,0,1,5.62,3.3,45.83,45.83,0,0,1,12.87-5.61,59.62,59.62,0,0,1,15.67-2,70,70,0,0,1,11.52.92,50.26,50.26,0,0,1,5.83,1.34c.25-.61.52-1.21.8-1.79a37.64,37.64,0,0,1,10.74-13.49,41.56,41.56,0,0,1,14.8-7.32,58.64,58.64,0,0,1,15.29-2c7.15,0,13.07.91,18,2.77a29.42,29.42,0,0,1,39.26,1.47,27.67,27.67,0,0,1,8,19.76c0,.59,0,1.18,0,1.77.8-.27,1.63-.53,2.46-.77a68.48,68.48,0,0,1,19.09-2.55c13.39,0,24.31,3.35,32.45,9.95q.94.78,1.83,1.59A46,46,0,0,1,661,512.56a56.7,56.7,0,0,1,10.25-2.29V495.15l11.88-3.57a47.38,47.38,0,0,1,6.2-1.31,52.85,52.85,0,0,1,8.31-.65,47.62,47.62,0,0,1,7.78.6,25.36,25.36,0,0,1,10.93,4.62,23.39,23.39,0,0,1,7.81,10.41,28.87,28.87,0,0,1,1.81,8.6c1.26-.54,2.55-1,3.87-1.44a54.47,54.47,0,0,1,16.7-2.62,51.7,51.7,0,0,1,17.94,3,46.48,46.48,0,0,1,12.67,7,40.16,40.16,0,0,1,7-4,67.63,67.63,0,0,1,8.44-3.11,72,72,0,0,1,9.24-2.06,64.92,64.92,0,0,1,9.87-.76c7.33,0,13.64,1.71,18.76,5.09a23.77,23.77,0,0,1,8.65,10c.56-.62,1.15-1.22,1.75-1.8A46.49,46.49,0,0,1,857,513.12a54.91,54.91,0,0,1,19.35-3.33,53.78,53.78,0,0,1,19.48,3.44,47.8,47.8,0,0,1,13,7.5,39.51,39.51,0,0,1,8.24-4.89,68.5,68.5,0,0,1,8.42-3.1,71.2,71.2,0,0,1,9.25-2.07,65.22,65.22,0,0,1,9.87-.76c7.34,0,13.66,1.71,18.78,5.09l.72.5a48.74,48.74,0,0,1,7.83-3.17A61.46,61.46,0,0,1,990,509.79a60.68,60.68,0,0,1,18,2.57,51.11,51.11,0,0,1,14.62,7.08,31.91,31.91,0,0,1,8.1,8.13,26.15,26.15,0,0,1,4.32,14.91v44.11a41.21,41.21,0,0,1-4.4,19.22,40,40,0,0,1-11.75,13.8,46.09,46.09,0,0,1-16,7.46,67.06,67.06,0,0,1-16.72,2c-10.24,0-18.46-1.53-25.14-4.69a27.28,27.28,0,0,1-15.71-20.24l-4.26,1.28a44.4,44.4,0,0,1-6.47,1.3,58.08,58.08,0,0,1-7.91.54,46.4,46.4,0,0,1-7.81-.62A25.14,25.14,0,0,1,908,602.1a22.82,22.82,0,0,1-2.29-2,46.68,46.68,0,0,1-10.25,5.09,57.06,57.06,0,0,1-19.05,3.09A54.85,54.85,0,0,1,857,605a48,48,0,0,1-7.18-3.37,28.25,28.25,0,0,1-19.09,6.83,28.65,28.65,0,0,1-16.49-4.83l-6.19,1.86a43.41,43.41,0,0,1-6.46,1.3,58.19,58.19,0,0,1-7.91.54,46.31,46.31,0,0,1-7.81-.62,25.21,25.21,0,0,1-9.78-3.81,44.37,44.37,0,0,1-14.09,4.5,81.9,81.9,0,0,1-11.94.93,60.72,60.72,0,0,1-19-2.9A48.21,48.21,0,0,1,716,597.35a32.09,32.09,0,0,1-3.11,2.26,54.1,54.1,0,0,1-13.48,6.11,65.94,65.94,0,0,1-38.56-.6,51.5,51.5,0,0,1-5.89-2.49l-9.46,2.84a44,44,0,0,1-6.46,1.3,57.86,57.86,0,0,1-7.91.54,46.31,46.31,0,0,1-7.81-.62,25.33,25.33,0,0,1-9.21-3.45l-7.42,2.23a43.58,43.58,0,0,1-6.47,1.3,58.08,58.08,0,0,1-7.91.54,46.52,46.52,0,0,1-7.82-.62,26.47,26.47,0,0,1-5.45-1.54l-4.18.76c-1,.18-2.45.43-4.4.74a50.71,50.71,0,0,1-8.15.66,46.31,46.31,0,0,1-7.81-.62,25,25,0,0,1-10.9-4.6,24,24,0,0,1-2.91-2.59A138.63,138.63,0,0,1,524.12,605v0l-1.54.46a44,44,0,0,1-6.46,1.3,58.19,58.19,0,0,1-7.91.54,46.31,46.31,0,0,1-7.81-.62,25,25,0,0,1-10.67-4.43c-7.23,4.15-16.21,6.18-27.27,6.18a77.22,77.22,0,0,1-12.57-1,45.11,45.11,0,0,1-12.36-3.81,33.88,33.88,0,0,1-3.64-2.06c-7.42,4.6-16.76,6.85-28.4,6.85a77.22,77.22,0,0,1-12.57-1,45.11,45.11,0,0,1-12.36-3.81c-.95-.46-1.87-1-2.77-1.51-.36.21-.73.41-1.11.61a44.55,44.55,0,0,1-14.35,4.63,81.77,81.77,0,0,1-11.93.93,60.72,60.72,0,0,1-19-2.9,51.4,51.4,0,0,1-7-2.88l-9.79,2.94a43.41,43.41,0,0,1-6.46,1.3,58.37,58.37,0,0,1-7.93.54,46.49,46.49,0,0,1-7.81-.62,25.39,25.39,0,0,1-9.2-3.45l-7.43,2.23a44,44,0,0,1-6.46,1.3,58.08,58.08,0,0,1-7.91.54,46.31,46.31,0,0,1-7.81-.62,25.4,25.4,0,0,1-8.44-3,37.73,37.73,0,0,1-7.06,2.77v29.06Z"/><path class="cls-2" d="M67.16,629.28v-24.4A30.51,30.51,0,0,1,74.1,585a32.63,32.63,0,0,1,10.63-8.24,70.84,70.84,0,0,1,3.33-7c-1.18.11-2.4.17-3.62.17-15,0-27-8-32-21.42-1.89-5-1.42-10.55,1.37-16.41,2.14-4.49,5.49-9,9-13.66,1.21-1.61,2.47-3.29,3.73-5a94.58,94.58,0,0,0,5.64-8.61,23.32,23.32,0,0,0,1.95-5.57c.15-.58.29-1.16.44-1.74a49.65,49.65,0,0,1,3.59-10.82c2.85-5.73,7-9.15,10-11.65a19.42,19.42,0,0,0,3.31-3.13,15.64,15.64,0,0,0,.28-1.92c.42-3.71,1.2-10.61,8.89-16a16.92,16.92,0,0,1,9.85-3.25c.27,0,.54,0,.81,0,7.65.39,12.66,6,16.33,10.06l.95,1.05a44.57,44.57,0,0,0,4.21,4.08,55.23,55.23,0,0,1,10.73,1.64,15.89,15.89,0,0,1,10.11-4.7c3.45-.25,6.95-.38,10.41-.38s7,.13,10.41.38A15.89,15.89,0,0,1,186,469.32,15.77,15.77,0,0,1,199.14,467c3.09.82,6.11,1.74,9,2.75,1.92.67,3.76,1.37,5.47,2.09a15.76,15.76,0,0,1,9.73,14.8c0,3.29-.19,8.36-.66,13.88l0,.19c-.74,8.66-1.82,21.29-12.86,29.4l5.92,47.41A32.64,32.64,0,0,1,223,583a30.18,30.18,0,0,1,8.84,21.91v24.4Z"/><path class="cls-3" d="M80.9,615.55V604.88a17.64,17.64,0,0,1,1.9-8.28c.11-.21.22-.42.34-.62A16.64,16.64,0,0,1,87,591.5,20.16,20.16,0,0,1,93.7,588h0A3.15,3.15,0,0,0,96,586a1.34,1.34,0,0,0,.07-.18v-.08h0v-1.13h.39a56.21,56.21,0,0,1,3.13-7.25A49.3,49.3,0,0,1,111,562.52c11.33-9.59,37.13-32.9,38.23-33.88a3.31,3.31,0,0,0-2.21-5.78h-.35l-.66.07-.48-.47c-.29-.29-.61-.65-.95-1.06-.78-.95-1.56-2-2.31-3.1l0,0c-2.24-3.16-3.51-4.81-5.74-4.81a3.81,3.81,0,0,0-3.67,3.11,34.09,34.09,0,0,1-4.94,11.17,39.17,39.17,0,0,1-7.58,8.31,38.52,38.52,0,0,1-8.15,5.19,24.22,24.22,0,0,1-3.92,1.45,10.89,10.89,0,0,1-2.24.39c-7,.42-10.78,5.38-13.55,9l0,0c-.7.93-1.37,1.8-2,2.48a5.58,5.58,0,0,1-1.18,1l-.17.1-.2,0-.57.12a22,22,0,0,1-3.88.32,23.08,23.08,0,0,1-10.55-2.42A17.23,17.23,0,0,1,69,550a19.66,19.66,0,0,1-3.76-6.33c-.37-1-.64-2.73,1.27-6.39a84,84,0,0,1,7.25-10.6l0,0a143.6,143.6,0,0,0,10.3-15.07,40.57,40.57,0,0,0,3.79-10.85,38.62,38.62,0,0,1,2.54-7.95c1.57-3.13,4.06-5.21,6.48-7.21a28.3,28.3,0,0,0,6.06-6.23,16.53,16.53,0,0,0,2.4-7.85c.32-2.78.51-4.46,3.13-6.3a3.51,3.51,0,0,1,2-.77,4.85,4.85,0,0,1,2.78,1.33,38.47,38.47,0,0,1,4.14,4.2l1,1.12a54,54,0,0,0,8.93,8,3.3,3.3,0,0,0,1.8.54h1a40.78,40.78,0,0,1,12.57,2.06,64.76,64.76,0,0,1,10.2,5.11,50.89,50.89,0,0,0,8,4l1.2.4-.26,1.24c-.16.79-.35,1.61-.5,2.26v0c-1.05,4.61-2,8.6-.16,11.12l.32.42.06,2.15.31,9a1.7,1.7,0,0,0,0,.22,109.91,109.91,0,0,1,.31,11.93c-.15,7.42-.1,16.65-.09,17.68v.05c0,.73-.6,17.81-1.33,26.36a11.23,11.23,0,0,0,2.65,8.5c3.94,4.58,10.92,5.6,13,5.8l.15,0,.14,0a20.45,20.45,0,0,1,6.07,3.24,16.61,16.61,0,0,1,4.4,5.13,17.59,17.59,0,0,1,2,8.46v10.67Z"/><path class="cls-3" d="M187.67,604.88v9.25H82.31v-9.25a16.16,16.16,0,0,1,1.75-7.62c.09-.19.2-.38.3-.56a15.16,15.16,0,0,1,3.56-4.1,18.61,18.61,0,0,1,6.16-3.28,4.6,4.6,0,0,0,3.22-2.79c.06-.16.12-.32.17-.48h0a51.12,51.12,0,0,1,3.36-8,48,48,0,0,1,11.09-14.42c11.6-9.81,38-33.68,38.28-33.92a4.73,4.73,0,0,0-3.17-8.24l-.49,0a11,11,0,0,1-.86-1c-.75-.91-1.52-2-2.26-3-2.14-3-3.83-5.4-6.9-5.4a5.2,5.2,0,0,0-5.05,4.19A32.63,32.63,0,0,1,126.73,527a37.34,37.34,0,0,1-7.31,8,36.4,36.4,0,0,1-7.84,5,23.41,23.41,0,0,1-3.68,1.37,10.74,10.74,0,0,1-2,.35c-7.65.46-11.83,5.94-14.6,9.56-.7.91-1.35,1.77-1.94,2.4a4.32,4.32,0,0,1-.84.76l-.49.1a20.15,20.15,0,0,1-3.63.3,21.6,21.6,0,0,1-9.89-2.26,15.94,15.94,0,0,1-4.47-3.44,18.36,18.36,0,0,1-3.48-5.88c-.16-.42-.64-1.71,1.19-5.23a84,84,0,0,1,7.14-10.41,145,145,0,0,0,10.42-15.26,41.46,41.46,0,0,0,3.94-11.22,37.48,37.48,0,0,1,2.43-7.64c1.43-2.87,3.71-4.76,6.12-6.76a29.34,29.34,0,0,0,6.34-6.55,17.93,17.93,0,0,0,2.62-8.46c.31-2.71.44-3.82,2.54-5.3a2.29,2.29,0,0,1,1.14-.51c.19,0,.75.1,1.89,1a36.45,36.45,0,0,1,4,4c.33.37.67.75,1,1.12a54.12,54.12,0,0,0,9.2,8.21,4.66,4.66,0,0,0,2.58.78h1a39.26,39.26,0,0,1,12.11,2,65.38,65.38,0,0,1,10,5,51.47,51.47,0,0,0,8.21,4.15c-.16.8-.35,1.63-.5,2.27-1.13,4.95-2.1,9.22.07,12.27l.06.08,0,1.69v0l.31,9c0,.12,0,.22,0,.33a107.05,107.05,0,0,1,.3,11.75c-.15,7.39-.09,16.67-.09,17.72,0,1.38-.61,17.93-1.32,26.28a12.62,12.62,0,0,0,3,9.55c4.27,5,11.66,6.06,13.89,6.29a18.74,18.74,0,0,1,5.62,3,15.05,15.05,0,0,1,4,4.69A16.14,16.14,0,0,1,187.67,604.88Z"/><path class="cls-4" d="M108.67,484.78A43.17,43.17,0,0,0,96,499.12c-2.46,4.81-2.84,9.8-5.54,14.66-6.37,11.46-18.82,24.16-22.7,28a1.24,1.24,0,0,1-1.3.27,1.2,1.2,0,0,1-.66-.58l-2.58-4.86c3.39-7.12,11.87-15.78,18-26.64,3.32-5.82,3.4-12.94,6.25-18.64,3.31-6.64,9.5-8.79,12.72-13.76,3.46-5.33-.09-10.5,6.41-15.06a6.64,6.64,0,0,1,3.86-1.37h.24c.28,1.81.64,3.56,1,5.26C113.3,474,114.79,480.36,108.67,484.78Z"/><path class="cls-4" d="M135.73,588.83l-2.27,3h-.37c-13.54,0-34.41,2.75-48.73,4.87a15.16,15.16,0,0,1,3.56-4.1,18.61,18.61,0,0,1,6.16-3.28l.18-.05h0a251.26,251.26,0,0,1,38-2.48h.82Z"/><path class="cls-5" d="M184.24,588.3a2.38,2.38,0,0,0-1.36-1.18l-.86-.26a21.36,21.36,0,0,0-5-2.13s-13.89-.89-13-10.76c.76-8.9,1.34-26.62,1.34-26.62s-.07-9.86.09-17.68a111.51,111.51,0,0,0-.32-12.34l-.31-9-.12-3.88c-4.18-.45,3.47-16.61-.19-16.61a1.91,1.91,0,0,0-.49.08,1.79,1.79,0,0,1-.53.07c-3.47,0-12.54-7-19.73-9.46a44.23,44.23,0,0,0-13.64-2.23c-.62,0-1,0-1,0a49.15,49.15,0,0,1-8.3-7.44c-3.28-3.6-6.42-7.55-10.14-7.72h-.24a6.64,6.64,0,0,0-3.86,1.37c-6.5,4.56-3,9.73-6.41,15.06-3.22,5-9.41,7.12-12.72,13.76-2.85,5.7-2.93,12.82-6.25,18.64-6.18,10.86-14.66,19.52-18,26.64-1.43,3-2,5.75-1,8.27C66.7,557,77.38,559.52,84.44,559.52a22.9,22.9,0,0,0,5.32-.56c5-1.23,7.26-12,16.46-12.57,7.81-.47,25.47-10.6,29.85-29.06.09-.39.24-.56.45-.56,1.55,0,6.07,9.68,9.55,9.68a1.81,1.81,0,0,0,1-.28c-.41.37-26.58,24-38.16,33.82-11.22,9.49-15.6,23.59-15.93,24.68l0,.06a22.81,22.81,0,0,0-10.81,7,19.87,19.87,0,0,0-4.52,13.16v14H192.4v-14A19.69,19.69,0,0,0,184.24,588.3ZM100.83,578a48,48,0,0,1,11.09-14.42c11.6-9.81,38-33.68,38.28-33.92a4.73,4.73,0,0,0-3.17-8.24l-.49,0a11,11,0,0,1-.86-1c-.75-.91-1.52-2-2.26-3-2.14-3-3.83-5.4-6.9-5.4a5.2,5.2,0,0,0-5.05,4.19A32.63,32.63,0,0,1,126.73,527a37.34,37.34,0,0,1-7.31,8,36.4,36.4,0,0,1-7.84,5,16.57,16.57,0,0,1-5.64,1.72c-7.65.46-11.83,5.94-14.6,9.56-.7.91-1.35,1.77-1.94,2.4a4.32,4.32,0,0,1-.84.76,18.63,18.63,0,0,1-4.12.4,21.6,21.6,0,0,1-9.89-2.26,15.94,15.94,0,0,1-4.47-3.44,18.36,18.36,0,0,1-3.48-5.88,2.61,2.61,0,0,1-.17-1.16A10.09,10.09,0,0,1,67.79,538a84,84,0,0,1,7.14-10.41,145,145,0,0,0,10.42-15.26,41.46,41.46,0,0,0,3.94-11.22,37.48,37.48,0,0,1,2.43-7.64c1.43-2.87,3.71-4.76,6.12-6.76a29.34,29.34,0,0,0,6.34-6.55,17.93,17.93,0,0,0,2.62-8.46c.31-2.71.44-3.82,2.54-5.3a2.29,2.29,0,0,1,1.14-.51,2.55,2.55,0,0,1,1.24.54,6.25,6.25,0,0,1,.65.48,36.45,36.45,0,0,1,4,4c.33.37.67.75,1,1.12a54.12,54.12,0,0,0,9.2,8.21,4.66,4.66,0,0,0,2.58.78h1a39.26,39.26,0,0,1,12.11,2,65.38,65.38,0,0,1,10,5,51.47,51.47,0,0,0,8.21,4.15c-.16.8-.35,1.63-.5,2.27-1.13,4.95-2.1,9.22.07,12.27l.06.08,0,1.69v0l.31,9c0,.12,0,.22,0,.33a107.05,107.05,0,0,1,.3,11.75c-.15,7.39-.09,16.67-.09,17.72,0,1.38-.61,17.93-1.32,26.28a12.62,12.62,0,0,0,3,9.55c.11.13.22.26.34.38a291,291,0,0,0-30.41-1.44,275.56,275.56,0,0,0-34,1.86A58.65,58.65,0,0,1,100.83,578Zm86.84,36.11H82.31v-9.25a16.16,16.16,0,0,1,1.75-7.62,15,15,0,0,1,3.86-4.66,18.61,18.61,0,0,1,6.16-3.28l.19-.05a251.26,251.26,0,0,1,38-2.48h.82c28.3.06,43,3.38,47.11,4.47a16,16,0,0,1,1.65,1.15,15.05,15.05,0,0,1,4,4.69,16.14,16.14,0,0,1,1.82,7.78Z"/><path class="cls-5" d="M112.42,495.33a7.78,7.78,0,0,0-7.62,5c-1.54,3.68-3.65,7.28-1.23,6.24s2.5-1.38,4-1.38,1.57.65,4.33.65,6.72-3,6.72-3-.9-7.54-6-7.54"/><path class="cls-6" d="M216.71,604.88v9.25H111.35v-9.25a16.16,16.16,0,0,1,1.74-7.62A14.89,14.89,0,0,1,117,592.6a18.49,18.49,0,0,1,6.15-3.28h0a5.53,5.53,0,0,0,.81-.28h0a4.67,4.67,0,0,0,2.71-3.72l.19-1.55L134.18,525s0,0,0-.07a4.74,4.74,0,0,0-1.94-4.36,5.1,5.1,0,0,0-1-.55,16.1,16.1,0,0,1-5.51-3.47,13.31,13.31,0,0,1-2.92-4.42c-1.53-3.65-1.91-8.08-2.31-12.77l0-.19c-.45-5.3-.58-10.22-.61-13.21a97.64,97.64,0,0,1,13.57-4.53l4,14.4a4.73,4.73,0,0,0,4.56,3.47h5.11a4.74,4.74,0,0,0,4.69-4.08l2.4-17.23c3.26-.25,6.56-.38,9.84-.38s6.57.13,9.84.38l2.4,17.23a4.72,4.72,0,0,0,4.68,4.08h5.12a4.73,4.73,0,0,0,4.56-3.47l4-14.4.67.18.48.13.57.15.88.25.93.27.34.1L200,483l.44.14c1.2.38,2.3.76,3.3,1.12q-.64,3.36-1.38,7.3c-1.55,8.43-2.73,16.25-6.92,21a27.58,27.58,0,0,1-8.5,6.31,53.16,53.16,0,0,1,8.85,1.75,4.74,4.74,0,0,0-1.94,4.36c-.82-.23-1.84-.47-3.1-.72-6.24-1.21-15.24-1.82-26.74-1.82a168,168,0,0,0-24.31,1.4c46.29-6.57,49.74,45.62,49.88,58.64,4.52.38,8.38.84,11.62,1.3l.19,1.55c0,.16.05.31.08.46s0,.2.07.3.07.19.1.29l.05.14.07.16,0,.09a3,3,0,0,0,.16.31l.06.11c.05.09.11.17.17.26l.06.09a1.71,1.71,0,0,0,.11.14,1,1,0,0,0,.13.16l0,0,.14.15c.05.06.11.11.17.17s.1.09.15.14l.16.13a3.6,3.6,0,0,0,.4.28.41.41,0,0,0,.11.07l.16.09,0,0,.11.06.15.07a4.66,4.66,0,0,0,.82.28,18.39,18.39,0,0,1,6.16,3.28,14.89,14.89,0,0,1,3.87,4.66A16.28,16.28,0,0,1,216.71,604.88Z"/><path class="cls-7" d="M201.22,583.77c-3.24-.46-7.1-.92-11.62-1.3-.14-13-3.59-65.21-49.88-58.64a168,168,0,0,1,24.31-1.4c11.5,0,20.5.61,26.74,1.82,1.26.25,2.28.49,3.1.72a.17.17,0,0,0,0,.07Z"/><path class="cls-7" d="M208.18,486c0,3-.16,7.91-.61,13.21l0,.19c-.4,4.69-.78,9.12-2.31,12.77a13.47,13.47,0,0,1-2.92,4.42,16.1,16.1,0,0,1-5.51,3.47,5.1,5.1,0,0,0-1,.55,53.16,53.16,0,0,0-8.85-1.75,27.58,27.58,0,0,0,8.5-6.31c4.19-4.72,5.37-12.54,6.92-21q.74-3.94,1.38-7.3l1,.37.27.1,1.44.56.26.1.33.13.18.08.47.19.18.08,0,0Z"/><path class="cls-8" d="M107.9,541.32a10.74,10.74,0,0,1-2,.35c-7.65.46-11.83,5.94-14.6,9.56-.7.91-1.35,1.77-1.94,2.4a4.32,4.32,0,0,1-.84.76l-.49.1,6.45-15.22a4,4,0,0,1,5.52-2Z"/><path class="cls-8" d="M215.68,590.36a22.88,22.88,0,0,0-5.85-4.16,20.74,20.74,0,0,0-3.73-1.47l0-.17-7.22-57.76-.29-2.35a22.48,22.48,0,0,0,2.15-1c10-5.14,10.77-14.61,11.56-23.85.45-5.2.58-10,.62-13.11a5.41,5.41,0,0,0-3.32-5.06c-1.29-.54-2.92-1.18-4.89-1.87-2.3-.8-5.05-1.67-8.21-2.51a5.42,5.42,0,0,0-6.61,3.78l-3.8,13.76H181l-2.32-16.69a5.41,5.41,0,0,0-5-4.65c-3.07-.22-6.29-.35-9.64-.35s-6.57.13-9.64.35a5.41,5.41,0,0,0-5,4.65l-2.33,16.69H142l-3.8-13.76a5.41,5.41,0,0,0-6.6-3.78,102.88,102.88,0,0,0-13.11,4.38,5.39,5.39,0,0,0-3.32,5.06c0,3.1.17,7.91.62,13.11.79,9.24,1.53,18.71,11.56,23.85a22.48,22.48,0,0,0,2.15,1l-.29,2.35L122,584.56l0,.17a23,23,0,0,0-9.58,5.63,19.72,19.72,0,0,0-5.76,14.52v14H221.44v-14A19.72,19.72,0,0,0,215.68,590.36Zm-11.86-1.47Zm-.13-.07,0,0h0Zm-2-2.34.08.19,0,.09,0-.09-.07-.16-.05-.14Zm-76-69.89a13.31,13.31,0,0,1-2.92-4.42c-1.53-3.65-1.91-8.08-2.31-12.77l0-.19c-.45-5.3-.58-10.22-.61-13.21a97.64,97.64,0,0,1,13.57-4.53l4,14.4a4.73,4.73,0,0,0,4.56,3.47h5.11a4.74,4.74,0,0,0,4.69-4.08l2.4-17.23c3.26-.25,6.56-.38,9.84-.38s6.57.13,9.84.38l2.4,17.23a4.72,4.72,0,0,0,4.68,4.08h5.12a4.73,4.73,0,0,0,4.56-3.47l4-14.4.67.18.48.13.57.15.88.25.93.27.34.1L200,483l.44.14c1.2.38,2.3.76,3.3,1.12l1,.37.27.1,1.44.56.26.1.33.13.18.08.47.19.18.08,0,0,.22.09c0,3-.16,7.91-.61,13.21l0,.19c-.4,4.69-.78,9.12-2.31,12.77a13.47,13.47,0,0,1-2.92,4.42,16.1,16.1,0,0,1-5.51,3.47,5.1,5.1,0,0,0-1,.55,53.16,53.16,0,0,0-8.85-1.75A184.77,184.77,0,0,0,164,517.7c-18,0-27.13,1.48-31.78,2.91a5.1,5.1,0,0,0-1-.55A16.1,16.1,0,0,1,125.74,516.59Zm8.44,8.45s0,0,0-.07c.82-.23,1.84-.47,3.1-.72.74-.14,1.53-.28,2.35-.41h.08a168,168,0,0,1,24.31-1.4c11.5,0,20.5.61,26.74,1.82,1.26.25,2.28.49,3.1.72a.17.17,0,0,0,0,.07l7.34,58.73c-3.24-.46-7.1-.92-11.62-1.3-6.92-.58-15.39-1-25.57-1a262.92,262.92,0,0,0-37.19,2.29Zm82.53,89.09H111.35v-9.25a16.16,16.16,0,0,1,1.74-7.62A14.89,14.89,0,0,1,117,592.6a18.49,18.49,0,0,1,6.15-3.28h0l.81-.28h0c7.79-1.33,20.85-2.83,40.09-2.83s32.3,1.5,40.09,2.83a4.66,4.66,0,0,0,.82.28,18.39,18.39,0,0,1,6.16,3.28,14.89,14.89,0,0,1,3.87,4.66,16.28,16.28,0,0,1,1.74,7.62Z"/><path class="cls-2" d="M1025.5,531.08a25.92,25.92,0,0,0-6.57-6.56,45,45,0,0,0-12.83-6.18A54.2,54.2,0,0,0,990,516a54.82,54.82,0,0,0-16.08,2.28,39.58,39.58,0,0,0-10.41,4.85,18,18,0,0,0-3.43-2.95c-4.08-2.69-9.24-4.05-15.33-4.05a58.13,58.13,0,0,0-8.91.69,62.59,62.59,0,0,0-16.08,4.69,33,33,0,0,0-7.3,4.39,23,23,0,0,0-3.42,3.42c-.47-.51-1-1-1.45-1.49a40.77,40.77,0,0,0-13.92-8.8,47.5,47.5,0,0,0-17.23-3A48.62,48.62,0,0,0,859.24,519a40.44,40.44,0,0,0-14,8.77,39.07,39.07,0,0,0-9.17,13.93c-1.83,4.59-2.29,3.16-1.73,1.3a23,23,0,0,0,.92-6.42c0-7-2.91-12.82-8.21-16.33-4.08-2.69-9.23-4.05-15.32-4.05a57.84,57.84,0,0,0-8.91.69,65.17,65.17,0,0,0-8.43,1.87,63,63,0,0,0-7.65,2.82,32.28,32.28,0,0,0-7.3,4.39,24.66,24.66,0,0,0-2.36,2.19c-.63-.66-1.29-1.28-2-1.9a39.66,39.66,0,0,0-12.77-7.53A45.47,45.47,0,0,0,746.56,516a48.33,48.33,0,0,0-14.79,2.33,38.78,38.78,0,0,0-12,6.28v-8.26a24.45,24.45,0,0,0-1.46-8.88,17.21,17.21,0,0,0-5.74-7.66,18.92,18.92,0,0,0-8.2-3.45,40.45,40.45,0,0,0-6.75-.53,45.75,45.75,0,0,0-7.32.58,42.37,42.37,0,0,0-5.39,1.12l-7.43,2.24v16.25A51.49,51.49,0,0,0,663,518.5a39.63,39.63,0,0,0-14.21,8.16,38.4,38.4,0,0,0-3.63,3.8,31.38,31.38,0,0,0-5.56-5.86c-7-5.68-16.6-8.56-28.51-8.56a61.74,61.74,0,0,0-17.34,2.31,46.16,46.16,0,0,0-13.84,6.38c-.39.27-.76.54-1.13.83-.09-.13-.18-.26-.28-.38A22.21,22.21,0,0,0,577.11,496a23.07,23.07,0,0,0-31.91,0,20.29,20.29,0,0,0-1.52,1.7c-.16-.11-.34-.2-.52-.3-4.57-2.54-10.72-3.78-18.81-3.78a52.61,52.61,0,0,0-13.64,1.75,35.51,35.51,0,0,0-12.59,6.21,31.63,31.63,0,0,0-9,11.26,32.7,32.7,0,0,0-2.44,7.37c-.36-.19-.75-.38-1.13-.56a39.83,39.83,0,0,0-9.73-2.88,64.08,64.08,0,0,0-10.49-.83,53.38,53.38,0,0,0-14,1.75,38.73,38.73,0,0,0-11.94,5.38,27.24,27.24,0,0,0-2.91,2.3,23.72,23.72,0,0,0-7.87-5.72,40,40,0,0,0-9.73-2.88,64.11,64.11,0,0,0-10.5-.83,53.3,53.3,0,0,0-14,1.75,38.73,38.73,0,0,0-11.94,5.38,28.38,28.38,0,0,0-5.35,4.76c-.53-.55-1.09-1.07-1.66-1.58a39.87,39.87,0,0,0-12.77-7.53A45.47,45.47,0,0,0,346.88,516a48.33,48.33,0,0,0-14.79,2.33,38.78,38.78,0,0,0-13.73,7.74,35.16,35.16,0,0,0-4,4,28.52,28.52,0,0,0-4.62-5.21c-6.61-5.9-15.49-8.89-26.41-8.89-.65,0-1.3,0-1.93,0a23.29,23.29,0,0,0-1.63-8.83,17.67,17.67,0,0,0-5.68-7.39,19,19,0,0,0-8.22-3.45,40.28,40.28,0,0,0-6.75-.53,44.14,44.14,0,0,0-7.16.58l-4.27.72-8.57,1.55v5c-5.29-2.22-11.7-3.31-19.45-3.31a54.8,54.8,0,0,0-19,3.29,46.17,46.17,0,0,0-16.17,10.09A47.33,47.33,0,0,0,173.7,530a55.73,55.73,0,0,0-3.88,21.3,57.09,57.09,0,0,0,4,22.26,45.27,45.27,0,0,0,11.4,16.32A46.09,46.09,0,0,0,202,599.42a62.13,62.13,0,0,0,19.07,2.9c9.91,0,17.42-1.7,23-5.2.47-.29.92-.58,1.35-.88.33.29.69.57,1,.84a18.81,18.81,0,0,0,8.22,3.44,39.09,39.09,0,0,0,6.74.54,52.71,52.71,0,0,0,7.05-.48,38.78,38.78,0,0,0,5.52-1.1l7.43-2.23v-4.19a17.58,17.58,0,0,0,3.87,4,18.78,18.78,0,0,0,8.2,3.44,39.25,39.25,0,0,0,6.74.54,52.52,52.52,0,0,0,7.06-.48,39.26,39.26,0,0,0,5.53-1.1l7.42-2.23V592.5a41.7,41.7,0,0,0,13.12,7,54.55,54.55,0,0,0,17,2.6,74.38,74.38,0,0,0,11-.87,38.41,38.41,0,0,0,12.36-4,22.37,22.37,0,0,0,4.08-2.74,26.13,26.13,0,0,0,5.47,3.55A38.8,38.8,0,0,0,394,601.29a71.35,71.35,0,0,0,11.55.89c11.76,0,20.74-2.46,27.44-7.52.39-.28.75-.57,1.11-.87A25.19,25.19,0,0,0,440.3,598a38.62,38.62,0,0,0,10.62,3.26,71.35,71.35,0,0,0,11.55.89c11.76,0,20.74-2.46,27.44-7.52.16-.11.31-.23.45-.34a17.62,17.62,0,0,0,2.9,2.76,18.81,18.81,0,0,0,8.22,3.44,39.09,39.09,0,0,0,6.74.54,52.71,52.71,0,0,0,7-.48,38.78,38.78,0,0,0,5.52-1.1l1.54-.46a144.1,144.1,0,0,0,20.38-7.18,17.47,17.47,0,0,0,4.62,5.24,18.81,18.81,0,0,0,8.22,3.44,39.09,39.09,0,0,0,6.74.54,44.15,44.15,0,0,0,7.16-.59c1.89-.3,3.31-.54,4.28-.72l6.1-1.1a19.75,19.75,0,0,0,5.71,1.87,39.29,39.29,0,0,0,6.75.54,52.49,52.49,0,0,0,7.05-.48,39.26,39.26,0,0,0,5.53-1.1l7.42-2.23v-4.19a17.54,17.54,0,0,0,3.86,4,18.86,18.86,0,0,0,8.22,3.44,39.17,39.17,0,0,0,6.74.54,52.34,52.34,0,0,0,7-.48,38.67,38.67,0,0,0,5.53-1.1l7.44-2.23v-4.36a41.41,41.41,0,0,0,11.77,6.32,59.53,59.53,0,0,0,34.62.54,48.31,48.31,0,0,0,12-5.41,23.9,23.9,0,0,0,6.22-5.7c.83.87,1.69,1.71,2.59,2.5a41.52,41.52,0,0,0,14.74,8.32,54.59,54.59,0,0,0,17,2.6,74.51,74.51,0,0,0,11-.87,38.43,38.43,0,0,0,12.35-4,22.59,22.59,0,0,0,3.18-2,18.06,18.06,0,0,0,2.12,1.87,18.81,18.81,0,0,0,8.22,3.44,39.09,39.09,0,0,0,6.74.54,52.71,52.71,0,0,0,7-.48,39.07,39.07,0,0,0,5.52-1.1l7.43-2.23v-2.43l.46.51c2.91,3.13,8.14,6.85,16.59,6.85s13.68-3.72,16.59-6.85c.55-.59,1.06-1.21,1.54-1.84a41.19,41.19,0,0,0,10.35,5.64,48.58,48.58,0,0,0,17.15,2.93,50.66,50.66,0,0,0,17-2.74,39.31,39.31,0,0,0,13.47-8,17.42,17.42,0,0,0,4.9,5.74,18.86,18.86,0,0,0,8.22,3.44,39.17,39.17,0,0,0,6.74.54,52.49,52.49,0,0,0,7.05-.48,39,39,0,0,0,5.53-1.1l7.43-2.23s4.48-1.62,4.48,2.07c0,8.61,4.56,15.7,12.53,19.45,5.83,2.76,13.18,4.09,22.47,4.09a60.88,60.88,0,0,0,15.15-1.84,40,40,0,0,0,13.8-6.44,33.8,33.8,0,0,0,9.93-11.66,35.06,35.06,0,0,0,3.69-16.33V542.48A20,20,0,0,0,1025.5,531.08Z"/><path class="cls-1" d="M223,528.61q-9.71,0-14.87,5.92t-5.17,16.77q0,11,5.74,16.89t15.44,5.92a24.55,24.55,0,0,0,8.76-1.38,60.43,60.43,0,0,0,6.86-3.16,12.45,12.45,0,0,1,3.34,4.23,12.92,12.92,0,0,1,1.2,5.73q0,5.18-5.73,8.76t-17.46,3.59a51.41,51.41,0,0,1-15.88-2.39,35.38,35.38,0,0,1-13-7.37,34.7,34.7,0,0,1-8.76-12.61,46.58,46.58,0,0,1-3.22-18.21A45.2,45.2,0,0,1,183.34,534a36.89,36.89,0,0,1,8.44-12.67,35.81,35.81,0,0,1,12.55-7.82,44.2,44.2,0,0,1,15.37-2.64q11.6,0,18,3.78t6.37,9.7a9.84,9.84,0,0,1-1.64,5.68,13.59,13.59,0,0,1-3.78,3.78,41.43,41.43,0,0,0-7-3.66A22.79,22.79,0,0,0,223,528.61Z"/><path class="cls-1" d="M309.83,589.49a31.33,31.33,0,0,1-4,.76,41,41,0,0,1-5.61.37,29.92,29.92,0,0,1-5-.37,8.56,8.56,0,0,1-3.72-1.52,7.13,7.13,0,0,1-2.33-3.09,13.26,13.26,0,0,1-.82-5.1v-28c0-3.45-.86-5.86-2.59-7.25a9.79,9.79,0,0,0-6.36-2.08,17.82,17.82,0,0,0-4.79.63,14.11,14.11,0,0,0-3.66,1.51v44.12a30.61,30.61,0,0,1-4,.76,40.77,40.77,0,0,1-5.61.37,29.8,29.8,0,0,1-5-.37,8.51,8.51,0,0,1-3.72-1.52,7.13,7.13,0,0,1-2.33-3.09,13.26,13.26,0,0,1-.82-5.1V507.43l4.09-.69a34.65,34.65,0,0,1,5.49-.44,29.82,29.82,0,0,1,5,.38,8.43,8.43,0,0,1,3.72,1.51,7.25,7.25,0,0,1,2.33,3.09,13.26,13.26,0,0,1,.82,5.1v12.36a44.19,44.19,0,0,1,5-1.45,30.83,30.83,0,0,1,7.38-.82q12.48,0,19.47,6.24t7,18.59Z"/><path class="cls-1" d="M350.41,591.63a44.06,44.06,0,0,1-13.8-2.08,31,31,0,0,1-11.09-6.24,28.94,28.94,0,0,1-7.44-10.46,37.05,37.05,0,0,1-2.71-14.75,34.42,34.42,0,0,1,2.71-14.3,27.71,27.71,0,0,1,17.21-15.51,37.78,37.78,0,0,1,11.59-1.82,35.09,35.09,0,0,1,12.16,2A29.43,29.43,0,0,1,368.5,534a24.72,24.72,0,0,1,6.17,8.45,25.85,25.85,0,0,1,2.21,10.71q0,4.29-2.4,6.55a11.89,11.89,0,0,1-6.68,2.9l-31.13,4.67a10.49,10.49,0,0,0,5.67,6.24,22.36,22.36,0,0,0,9.83,2.07,35.26,35.26,0,0,0,9.77-1.32,30.72,30.72,0,0,0,7.5-3.09,10.6,10.6,0,0,1,3.41,3.53,9.09,9.09,0,0,1,1.38,4.79,9,9,0,0,1-5.29,8.45,28.22,28.22,0,0,1-9.08,2.9A64.39,64.39,0,0,1,350.41,591.63Zm-3.53-49.53a12.36,12.36,0,0,0-5.23,1,10.45,10.45,0,0,0-3.59,2.58,10.62,10.62,0,0,0-2.08,3.53,14.48,14.48,0,0,0-.82,4l21.55-3.53a9.48,9.48,0,0,0-2.77-5Q351.54,542.1,346.88,542.1Z"/><path class="cls-1" d="M433.85,571.34q0,9.58-7.18,15t-21.18,5.42a59.26,59.26,0,0,1-9.83-.76,27.91,27.91,0,0,1-7.75-2.33,13.78,13.78,0,0,1-5-4A9.06,9.06,0,0,1,381,579a9.7,9.7,0,0,1,1.26-5.11,12.86,12.86,0,0,1,3-3.46,50.85,50.85,0,0,0,8.39,3.59,34.45,34.45,0,0,0,10.9,1.57,12.73,12.73,0,0,0,6-1.13,3.41,3.41,0,0,0,2.08-3,3.18,3.18,0,0,0-1.52-2.78,14.2,14.2,0,0,0-5-1.64l-3.78-.75q-11-2.14-16.32-6.75t-5.36-13.17a17.41,17.41,0,0,1,7.69-14.74,28.41,28.41,0,0,1,8.76-3.91,42.71,42.71,0,0,1,11.28-1.39,52.74,52.74,0,0,1,8.76.69,29,29,0,0,1,7.12,2.08,12.93,12.93,0,0,1,4.79,3.6,8.09,8.09,0,0,1,1.77,5.23,10.83,10.83,0,0,1-1.07,5,11.3,11.3,0,0,1-2.71,3.46,15.77,15.77,0,0,0-3-1.32q-2-.69-4.41-1.26c-1.6-.38-3.22-.69-4.85-.95a30,30,0,0,0-4.48-.37,17.35,17.35,0,0,0-6.43.94,3.14,3.14,0,0,0-2.27,3,2.65,2.65,0,0,0,1.27,2.27,14.19,14.19,0,0,0,4.78,1.64l3.91.88q12.1,2.77,17.21,7.63A16.52,16.52,0,0,1,433.85,571.34Z"/><path class="cls-1" d="M490.82,571.34q0,9.58-7.18,15t-21.18,5.42a59.26,59.26,0,0,1-9.83-.76,28,28,0,0,1-7.75-2.33,13.78,13.78,0,0,1-5-4A9.06,9.06,0,0,1,438,579a9.7,9.7,0,0,1,1.26-5.11,12.72,12.72,0,0,1,3-3.46,50.36,50.36,0,0,0,8.38,3.59,34.45,34.45,0,0,0,10.9,1.57,12.73,12.73,0,0,0,6-1.13,3.41,3.41,0,0,0,2.08-3,3.18,3.18,0,0,0-1.52-2.78,14.2,14.2,0,0,0-5-1.64l-3.78-.75q-11-2.14-16.32-6.75t-5.36-13.17a17.41,17.41,0,0,1,7.69-14.74,28.41,28.41,0,0,1,8.76-3.91,42.71,42.71,0,0,1,11.28-1.39,52.74,52.74,0,0,1,8.76.69,29,29,0,0,1,7.12,2.08,12.93,12.93,0,0,1,4.79,3.6,8.09,8.09,0,0,1,1.77,5.23,10.83,10.83,0,0,1-1.07,5,11.3,11.3,0,0,1-2.71,3.46,15.77,15.77,0,0,0-3-1.32c-1.34-.46-2.82-.88-4.41-1.26s-3.22-.69-4.85-.95a29.86,29.86,0,0,0-4.48-.37,17.35,17.35,0,0,0-6.43.94,3.13,3.13,0,0,0-2.26,3,2.64,2.64,0,0,0,1.26,2.27,14.18,14.18,0,0,0,4.79,1.64l3.9.88q12.11,2.77,17.21,7.63A16.52,16.52,0,0,1,490.82,571.34Z"/><path class="cls-1" d="M496.37,528.36a25.32,25.32,0,0,1,2.2-11,20.87,20.87,0,0,1,6-7.56,24.54,24.54,0,0,1,8.89-4.35,41.15,41.15,0,0,1,10.9-1.39q9.33,0,13.74,2.46t4.41,8.38a9.57,9.57,0,0,1-1.07,4.54,9.78,9.78,0,0,1-2.33,3c-1.6-.42-3.26-.77-5-1.07a36.48,36.48,0,0,0-6-.44q-5.42,0-8.45,1.83t-3,6.36v4h20.67a21.75,21.75,0,0,1,1.45,3.46,14.56,14.56,0,0,1,.69,4.6q0,4.42-2,6.37a7.08,7.08,0,0,1-5.23,1.95h-14.5v40a30.61,30.61,0,0,1-4,.76,40.77,40.77,0,0,1-5.61.37,29.88,29.88,0,0,1-5-.37,8.51,8.51,0,0,1-3.72-1.52,7.13,7.13,0,0,1-2.33-3.09,13.26,13.26,0,0,1-.82-5.1Zm53.06-17a11,11,0,0,1,3.22-8.06,12.67,12.67,0,0,1,17,0,11.71,11.71,0,0,1,0,16.13,12.67,12.67,0,0,1-17,0A11.06,11.06,0,0,1,549.43,511.34Zm22.44,78.15c-.93.17-2.29.4-4.1.69a33.39,33.39,0,0,1-5.48.44,29.92,29.92,0,0,1-5-.37,8.56,8.56,0,0,1-3.72-1.52,7.13,7.13,0,0,1-2.33-3.09,13.26,13.26,0,0,1-.82-5.1v-51.3c.92-.17,2.29-.4,4.1-.69a33.3,33.3,0,0,1,5.48-.44,29.92,29.92,0,0,1,5,.37,8.56,8.56,0,0,1,3.72,1.52,7.29,7.29,0,0,1,2.33,3.09,13.46,13.46,0,0,1,.82,5.1Z"/><path class="cls-1" d="M619.26,550.79q0-3.9-2.21-5.73a9.07,9.07,0,0,0-6-1.83,19.94,19.94,0,0,0-5,.63,12.47,12.47,0,0,0-4.22,1.89v43.74a31.2,31.2,0,0,1-4,.76,40.73,40.73,0,0,1-5.6.37,29.92,29.92,0,0,1-5-.37,8.56,8.56,0,0,1-3.72-1.52,7.13,7.13,0,0,1-2.33-3.09,13.26,13.26,0,0,1-.82-5.1V542.73a9.7,9.7,0,0,1,1.45-5.55,15.24,15.24,0,0,1,4-3.91,36.23,36.23,0,0,1,10.77-4.91,51.58,51.58,0,0,1,14.44-1.89q14.23,0,21.93,6.24T640.69,550v39.45a31,31,0,0,1-4,.76,41,41,0,0,1-5.61.37,29.92,29.92,0,0,1-5-.37,8.56,8.56,0,0,1-3.72-1.52,7.13,7.13,0,0,1-2.33-3.09,13.26,13.26,0,0,1-.82-5.1Z"/><path class="cls-1" d="M646.23,559a37.77,37.77,0,0,1,2.52-14.44,27.51,27.51,0,0,1,7-10.14,28.67,28.67,0,0,1,10.46-6,41.49,41.49,0,0,1,12.92-1.95,27.53,27.53,0,0,1,4.92.44A19.42,19.42,0,0,1,688,528V507.56a40,40,0,0,1,9.71-1.26,29.94,29.94,0,0,1,5,.38,8.34,8.34,0,0,1,3.71,1.51,6.84,6.84,0,0,1,2.27,3.09,14.21,14.21,0,0,1,.76,5.1v59.75q0,5.93-5.55,9.45a38.29,38.29,0,0,1-9.45,4.23A44.78,44.78,0,0,1,681,591.63a44.1,44.1,0,0,1-14.68-2.27,29.72,29.72,0,0,1-11-6.55,28.33,28.33,0,0,1-6.81-10.27A37.2,37.2,0,0,1,646.23,559ZM682,543.23q-6.81,0-10.46,3.91T667.91,559q0,7.82,3.4,11.78t9.84,4a11.51,11.51,0,0,0,4.09-.69,9.23,9.23,0,0,0,2.84-1.58V544.74A11.63,11.63,0,0,0,682,543.23Z"/><path class="cls-1" d="M750.09,591.63a44.06,44.06,0,0,1-13.8-2.08,31.08,31.08,0,0,1-11.09-6.24,28.94,28.94,0,0,1-7.44-10.46,37.05,37.05,0,0,1-2.71-14.75,34.42,34.42,0,0,1,2.71-14.3A27.71,27.71,0,0,1,735,528.29a37.78,37.78,0,0,1,11.59-1.82,35.15,35.15,0,0,1,12.17,2,29.49,29.49,0,0,1,9.45,5.55,24.74,24.74,0,0,1,6.18,8.45,25.85,25.85,0,0,1,2.2,10.71q0,4.29-2.39,6.55a12,12,0,0,1-6.68,2.9l-31.14,4.67a10.51,10.51,0,0,0,5.68,6.24,22.3,22.3,0,0,0,9.83,2.07,35.31,35.31,0,0,0,9.77-1.32,30.8,30.8,0,0,0,7.49-3.09,10.6,10.6,0,0,1,3.41,3.53,9.11,9.11,0,0,1,1.39,4.79,9,9,0,0,1-5.3,8.45,28.16,28.16,0,0,1-9.07,2.9A64.63,64.63,0,0,1,750.09,591.63Zm-3.53-49.53a12.39,12.39,0,0,0-5.23,1,10.45,10.45,0,0,0-3.59,2.58,10.79,10.79,0,0,0-2.08,3.53,14.48,14.48,0,0,0-.82,4l21.55-3.53a9.48,9.48,0,0,0-2.77-5Q751.22,542.1,746.56,542.1Z"/><path class="cls-1" d="M803.28,589.49a30.61,30.61,0,0,1-4,.76,40.88,40.88,0,0,1-5.61.37,29.92,29.92,0,0,1-5-.37,8.46,8.46,0,0,1-3.71-1.52,7.23,7.23,0,0,1-2.34-3.09,13.48,13.48,0,0,1-.81-5.1V542.73a10.67,10.67,0,0,1,1.07-5A11.61,11.61,0,0,1,786,534a22.52,22.52,0,0,1,5-3,51.69,51.69,0,0,1,6.37-2.33,52.94,52.94,0,0,1,7.06-1.58,47.28,47.28,0,0,1,7.31-.57q6,0,9.58,2.34t3.53,7.62a12,12,0,0,1-.51,3.47,16,16,0,0,1-1.26,3.09c-1.76,0-3.57.08-5.42.25s-3.65.42-5.42.75-3.42.7-5,1.08a20.94,20.94,0,0,0-4,1.32Z"/><path class="cls-1" d="M818.53,579.41a12.52,12.52,0,0,1,3.28-8.83,13.11,13.11,0,0,1,17.9,0,13.51,13.51,0,0,1,0,17.65,13.11,13.11,0,0,1-17.9,0A12.49,12.49,0,0,1,818.53,579.41Z"/><path class="cls-1" d="M909.41,559A38,38,0,0,1,907,572.91a28.33,28.33,0,0,1-6.75,10.28,28.65,28.65,0,0,1-10.39,6.3,40.19,40.19,0,0,1-13.49,2.14,38,38,0,0,1-13.49-2.27,29.61,29.61,0,0,1-10.4-6.49,29,29,0,0,1-6.74-10.27,39.6,39.6,0,0,1,0-27.1,29,29,0,0,1,6.74-10.27,29.61,29.61,0,0,1,10.4-6.49,38,38,0,0,1,13.49-2.27,37.37,37.37,0,0,1,13.49,2.33,30.5,30.5,0,0,1,10.39,6.55A29,29,0,0,1,907,545.63,36.09,36.09,0,0,1,909.41,559Zm-44.11,0q0,7.68,3,11.78a9.61,9.61,0,0,0,8.25,4.1,9.25,9.25,0,0,0,8.13-4.16q2.85-4.15,2.84-11.72t-2.9-11.66a10.23,10.23,0,0,0-16.38,0Q865.29,551.42,865.3,559Z"/><path class="cls-1" d="M936.26,589.49a30.61,30.61,0,0,1-4,.76,41,41,0,0,1-5.61.37,29.92,29.92,0,0,1-5-.37,8.56,8.56,0,0,1-3.72-1.52,7.29,7.29,0,0,1-2.33-3.09,13.26,13.26,0,0,1-.82-5.1V542.73a10.8,10.8,0,0,1,1.07-5A11.78,11.78,0,0,1,919,534a22.07,22.07,0,0,1,5-3,51.1,51.1,0,0,1,6.37-2.33,52.8,52.8,0,0,1,7-1.58,47.47,47.47,0,0,1,7.31-.57q6.06,0,9.58,2.34c2.36,1.55,3.53,4.09,3.53,7.62a12.39,12.39,0,0,1-.5,3.47,16.62,16.62,0,0,1-1.26,3.09c-1.77,0-3.57.08-5.42.25s-3.66.42-5.42.75-3.43.7-5,1.08a20.7,20.7,0,0,0-4,1.32Z"/><path class="cls-1" d="M990,526.47a44,44,0,0,1,13,1.82,34.45,34.45,0,0,1,9.89,4.73,15.45,15.45,0,0,1,4,3.91,9.77,9.77,0,0,1,1.44,5.55v44.11a24.7,24.7,0,0,1-2.52,11.53,23.11,23.11,0,0,1-6.87,8.07,29.27,29.27,0,0,1-10.21,4.73,49.88,49.88,0,0,1-12.54,1.51q-11.46,0-18-3.09t-6.56-10a10.5,10.5,0,0,1,1.2-5.1,10.06,10.06,0,0,1,2.71-3.34,43,43,0,0,0,8.26,3.4,32.91,32.91,0,0,0,9.51,1.39q6.81,0,10.84-2.27a7.77,7.77,0,0,0,4-7.31v-2a31.38,31.38,0,0,1-12.61,2.27,33.93,33.93,0,0,1-10.77-1.7,24.05,24.05,0,0,1-8.95-5.3,25.77,25.77,0,0,1-6.18-9.26,35.47,35.47,0,0,1-2.33-13.49,33.4,33.4,0,0,1,2.46-13.36,25.45,25.45,0,0,1,6.8-9.39,28.53,28.53,0,0,1,10.34-5.55A44.77,44.77,0,0,1,990,526.47Zm7.82,18.27a12.87,12.87,0,0,0-2.58-1,15,15,0,0,0-4.23-.51q-6.18,0-9.26,3.47t-3.09,9.89c0,4.88,1,8.38,3.09,10.53a10.45,10.45,0,0,0,7.88,3.21,12.89,12.89,0,0,0,8.19-2.39Z"/></svg>