<svg id="Layer_1" data-name="Layer 1" xmlns="http://www.w3.org/2000/svg" viewBox="0 0 512 512"><defs><style>.cls-1{fill:#565352;}.cls-2{fill:#777474;}.cls-3{fill:#272626;}.cls-4{fill:#f8f8f8;}.cls-5{fill:#d3d3d3;}.cls-6{fill:#464646;}</style></defs><path class="cls-1" d="M87.84,467.36V438.93A48.21,48.21,0,0,1,93,416.33c.31-.58.62-1.15.94-1.67a44.68,44.68,0,0,1,10.58-12.2,54.79,54.79,0,0,1,18.21-9.69l.09,0a10.57,10.57,0,0,0,7.43-6.44c.1-.27.2-.55.29-.84v-.15h0v-1.87h.64a153.06,153.06,0,0,1,9.11-21.33c6-11.67,16.41-28.32,31.84-41.38,32.42-27.43,107.13-94.92,107.88-95.6A11,11,0,0,0,272.66,206c-.38,0-.76,0-1.13.05l-1.12.11-.79-.78c-.78-.78-1.65-1.75-2.58-2.88-2.16-2.61-4.32-5.66-6.41-8.61l-.09-.13c-5.85-8.27-10.08-14.25-17.51-14.25-4.76,0-10.3,3.1-11.94,10a94.35,94.35,0,0,1-13.68,31,109,109,0,0,1-21.07,23.07A106.69,106.69,0,0,1,173.72,258a66.75,66.75,0,0,1-10.78,4,30.87,30.87,0,0,1-6,1.06c-20.47,1.23-31.87,16.15-39.41,26l-.05.07c-2,2.59-3.85,5-5.56,6.88a13.49,13.49,0,0,1-3,2.59l-.29.16-.32.08c-.45.11-1,.22-1.52.32a58.6,58.6,0,0,1-10.65.89c-7.43,0-18.5-1.15-29-6.64A47,47,0,0,1,54,283.22,53.94,53.94,0,0,1,43.69,265.9c-.94-2.51-1.59-7,3.47-16.7,4.48-8.6,11.82-18.36,20.32-29.67l.07-.09c9.42-12.54,20.1-26.76,29.16-42.68,5.75-10.09,8.35-20.73,10.87-31,2-8.07,3.83-15.66,7-22.05,4.25-8.53,10.85-14,17.84-19.82C138.62,98.75,145,93.45,149.87,86c5.39-8.31,6.3-16.37,7-22.85.89-7.88,1.33-11.83,8.13-16.6a8.47,8.47,0,0,1,4.58-1.87c1.74,0,4,1.14,6.83,3.39,3.66,2.94,7.45,7.17,11.47,11.65l2.85,3.17c13,14.29,24.26,21.93,25.5,22.75a10.8,10.8,0,0,0,6,1.81l.61,0h.07c.29,0,1,0,2.12,0a113.3,113.3,0,0,1,34.92,5.71c8.69,3,19.21,9,28.48,14.28,9.93,5.68,16.87,9.54,22.77,11.51l2,.67-.43,2.06c-.47,2.25-1,4.54-1.41,6.38l0,.08c-3.05,13.39-5.69,24.95-.19,32.67l.13.18.46.6.17,5.58.87,25.41c0,.28,0,.52.05.75a312.6,312.6,0,0,1,.85,33.43c-.42,21.48-.25,48.73-.24,49.88v.09c-.06,2-1.67,50-3.74,74.23A33.31,33.31,0,0,0,317.54,376c11.48,13.34,31.69,16.31,37.6,16.91l.25,0,.24.08a55.06,55.06,0,0,1,16.59,8.86,44.76,44.76,0,0,1,12,14,48,48,0,0,1,5.43,23.08v28.43Z"/><path class="cls-1" d="M387.26,438.93V465h-297V438.93a45.86,45.86,0,0,1,4.9-21.5c.28-.53.57-1.05.88-1.57a42.25,42.25,0,0,1,10-11.55,52.59,52.59,0,0,1,17.36-9.26,12.91,12.91,0,0,0,9.08-7.86c.18-.44.33-.9.47-1.37h0a143,143,0,0,1,9.49-22.62c5.91-11.48,16.13-27.84,31.27-40.65,32.7-27.67,107.17-95,107.93-95.65a13.33,13.33,0,0,0-9-23.22c-.45,0-.91,0-1.37.06-.61-.61-1.42-1.47-2.43-2.7-2.12-2.57-4.29-5.64-6.38-8.6-6-8.51-10.79-15.25-19.45-15.25-5.7,0-12.31,3.66-14.25,11.84a91.93,91.93,0,0,1-13.34,30.19,106.38,106.38,0,0,1-20.61,22.58,104,104,0,0,1-22.11,14.08,64,64,0,0,1-10.38,3.84,28.6,28.6,0,0,1-5.53,1c-21.56,1.3-33.36,16.75-41.16,27-2,2.57-3.81,5-5.46,6.77a11.52,11.52,0,0,1-2.38,2.14c-.31.08-.78.18-1.38.29a56.23,56.23,0,0,1-10.23.85c-7.17,0-17.82-1.11-27.89-6.37a44.89,44.89,0,0,1-12.59-9.71,51.58,51.58,0,0,1-9.81-16.57c-.45-1.19-1.81-4.83,3.36-14.76,4.38-8.43,11.67-18.13,20.11-29.36,9.48-12.62,20.23-26.92,29.39-43,5.91-10.36,8.55-21.17,11.11-31.63,1.94-7.91,3.77-15.39,6.85-21.55,4-8.09,10.45-13.42,17.24-19.06,6.3-5.23,12.83-10.66,17.89-18.45,5.7-8.78,6.64-17.15,7.39-23.88.86-7.61,1.22-10.77,7.14-14.92A6.63,6.63,0,0,1,169.61,47c.54,0,2.13.28,5.35,2.86,3.5,2.81,7.23,7,11.19,11.38.93,1,1.89,2.12,2.86,3.18,13.56,14.91,25.44,22.8,25.93,23.13a13.16,13.16,0,0,0,7.27,2.21c.26,0,.51,0,.76,0s.84,0,2,0a111,111,0,0,1,34.16,5.58c8.48,2.89,18.89,8.85,28.09,14.11,9.85,5.63,17,9.64,23.17,11.69-.47,2.26-1,4.59-1.42,6.42-3.18,13.94-5.93,26,.19,34.56l.18.24.13,4.77a.13.13,0,0,0,0,.06l.87,25.41c0,.32,0,.62.06.93a306.4,306.4,0,0,1,.84,33.12c-.41,20.82-.26,47-.24,50-.13,3.9-1.73,50.55-3.74,74.1a35.65,35.65,0,0,0,8.43,26.92c12.05,14,32.89,17.1,39.17,17.73a53.37,53.37,0,0,1,15.85,8.46A42.32,42.32,0,0,1,382.11,417,45.51,45.51,0,0,1,387.26,438.93Z"/><path class="cls-2" d="M164.53,100.31c-13.65,9.86-27.8,24.71-35.83,40.43-6.94,13.56-8,27.64-15.62,41.34-18,32.3-53,68.12-64,78.93a3.49,3.49,0,0,1-5.53-.86l-7.26-13.72c9.57-20.07,33.45-44.47,50.9-75.1,9.34-16.4,9.58-36.48,17.6-52.54C114.14,100.06,131.58,94,140.67,80c9.76-15-.27-29.6,18.06-42.47a18.79,18.79,0,0,1,10.88-3.85l.69,0c.79,5.09,1.81,10,2.81,14.82C177.58,69.88,181.78,87.84,164.53,100.31Z"/><path class="cls-2" d="M240.79,393.67l-6.38,8.46h-1c-38.17.14-97,7.76-137.38,13.73a42.25,42.25,0,0,1,10-11.55,52.59,52.59,0,0,1,17.36-9.26l.52-.14h0c22.43-3.46,57.46-7,107.07-7h2.3Z"/><path class="cls-3" d="M175.09,130.07c-8.72,0-17.12,3.72-21.48,14.11s-10.31,20.53-3.49,17.59,7-3.88,11.26-3.88,4.43,1.82,12.2,1.82,18.95-8.4,18.95-8.4-2.54-21.24-17.05-21.24"/><path class="cls-3" d="M377.57,392.19a6.67,6.67,0,0,0-3.83-3.33c-.21-.06-1-.33-2.41-.73a60.83,60.83,0,0,0-14-6s-39.14-2.52-36.76-30.34c2.15-25.1,3.79-75.06,3.79-75.06s-.19-27.8.24-49.86-.91-34.76-.91-34.76l-.87-25.41-.32-10.94c-11.79-1.28,9.77-46.84-.53-46.84a5.11,5.11,0,0,0-1.4.22,5.27,5.27,0,0,1-1.49.2c-9.78,0-35.37-19.76-55.64-26.66A124.87,124.87,0,0,0,225,76.37c-1.75,0-2.73.06-2.73.06s-10.82-7.13-23.4-21c-9.25-10.17-18.1-21.29-28.58-21.77l-.69,0a18.79,18.79,0,0,0-10.88,3.85C140.4,50.39,150.43,65,140.67,80c-9.09,14-26.53,20.07-35.88,38.8-8,16.06-8.26,36.14-17.6,52.54-17.45,30.63-41.33,55-50.9,75.1-4,8.5-5.53,16.22-2.87,23.32C46.18,303.78,76.3,311,96.2,311a65.36,65.36,0,0,0,15-1.57c14-3.49,20.47-33.9,46.4-35.46,22-1.32,71.81-29.88,84.15-81.91.26-1.1.69-1.58,1.27-1.58,4.38,0,17.13,27.27,26.93,27.27a5.1,5.1,0,0,0,2.7-.78c-1.15,1-74.93,67.72-107.58,95.35-31.64,26.76-44,66.51-44.91,69.57l-.06.19s-17.74,4.41-30.49,19.69c-7.16,8.57-12.75,20.56-12.75,37.12v39.4H400.59v-39.4C400.59,414.9,388.83,400.49,377.57,392.19Zm-235.15-29c5.91-11.48,16.13-27.84,31.27-40.65,32.7-27.67,107.17-95,107.93-95.65a13.33,13.33,0,0,0-9-23.22c-.45,0-.91,0-1.37.06-.61-.61-1.42-1.47-2.43-2.7-2.12-2.57-4.29-5.64-6.38-8.6-6-8.51-10.79-15.25-19.45-15.25-5.7,0-12.31,3.66-14.25,11.84a91.93,91.93,0,0,1-13.34,30.19,106.38,106.38,0,0,1-20.61,22.58,104,104,0,0,1-22.11,14.08c-8.71,4-14,4.72-15.91,4.83-21.56,1.3-33.36,16.74-41.16,27-2,2.57-3.81,5-5.46,6.77a11.52,11.52,0,0,1-2.38,2.14,51.47,51.47,0,0,1-11.61,1.14c-7.17,0-17.82-1.11-27.89-6.37a44.89,44.89,0,0,1-12.59-9.71,51.58,51.58,0,0,1-9.81-16.57,7.44,7.44,0,0,1-.49-3.27c.09-2.29.93-5.89,3.85-11.49,4.38-8.43,11.67-18.13,20.11-29.36,9.48-12.62,20.23-26.92,29.39-43,5.91-10.36,8.55-21.17,11.11-31.63,1.94-7.91,3.77-15.39,6.85-21.55,4-8.09,10.45-13.42,17.24-19.06,6.3-5.23,12.83-10.66,17.89-18.45,5.7-8.78,6.64-17.15,7.39-23.88.86-7.61,1.22-10.77,7.14-14.92A6.63,6.63,0,0,1,169.61,47c.42,0,1.5.17,3.5,1.5.55.36,1.16.81,1.85,1.36,3.5,2.81,7.23,7,11.19,11.38.93,1,1.89,2.12,2.86,3.18,13.56,14.91,25.44,22.8,25.93,23.13a13.16,13.16,0,0,0,7.27,2.21c.26,0,.51,0,.76,0s.84,0,2,0a111,111,0,0,1,34.16,5.58c8.48,2.89,18.89,8.85,28.09,14.11,9.85,5.63,17,9.64,23.17,11.69-.47,2.26-1,4.59-1.42,6.42-3.18,13.93-5.93,26,.19,34.56l.18.24.13,4.77a.13.13,0,0,0,0,.06l.87,25.41q0,.47.06.93a306.4,306.4,0,0,1,.84,33.12c-.41,20.82-.26,47-.24,50-.13,3.9-1.73,50.55-3.74,74.1a35.65,35.65,0,0,0,8.43,26.92c.32.37.64.73,1,1.08A815.18,815.18,0,0,0,231,374.57c-41.74,0-73.3,2.42-96,5.27A160.19,160.19,0,0,1,142.42,363.19ZM387.26,465h-297V438.93a45.86,45.86,0,0,1,4.9-21.5A42.09,42.09,0,0,1,106,404.31a52.59,52.59,0,0,1,17.36-9.26l.53-.14c22.43-3.46,57.46-7,107.07-7h2.3c79.79.18,121.29,9.53,132.82,12.62a51.06,51.06,0,0,1,4.66,3.23A42.32,42.32,0,0,1,382.11,417a45.51,45.51,0,0,1,5.15,21.95Z"/><path class="cls-4" d="M469.12,438.93V465h-297V438.93a45.86,45.86,0,0,1,4.9-21.5,42.09,42.09,0,0,1,10.91-13.12,52.25,52.25,0,0,1,17.36-9.26h0a12.25,12.25,0,0,0,2.28-.78h0a13.16,13.16,0,0,0,7.64-10.49l.54-4.35,20.69-165.6a1.23,1.23,0,0,0,0-.19,13.34,13.34,0,0,0-5.48-12.3,13.53,13.53,0,0,0-2.8-1.54A45.56,45.56,0,0,1,212.64,190a37.88,37.88,0,0,1-8.24-12.48c-4.32-10.28-5.38-22.77-6.51-36l0-.53c-1.28-14.95-1.63-28.84-1.72-37.27A276.23,276.23,0,0,1,234.38,91l11.22,40.6a13.34,13.34,0,0,0,12.85,9.78h14.43a13.33,13.33,0,0,0,13.2-11.5l6.76-48.58c9.22-.72,18.51-1.09,27.75-1.09s18.54.37,27.76,1.09l6.75,48.58a13.35,13.35,0,0,0,13.21,11.5h14.42a13.34,13.34,0,0,0,12.86-9.78L406.81,91l1.89.49,1.37.37,1.58.43,2.51.71,2.6.75,1,.29c1.49.44,2.94.88,4.34,1.32l1.25.4c3.37,1.08,6.49,2.13,9.31,3.15q-1.83,9.46-3.89,20.59c-4.38,23.76-7.7,45.82-19.51,59.12a78.13,78.13,0,0,1-24,17.78,153.19,153.19,0,0,1,25,4.94,13.31,13.31,0,0,0-5.48,12.3c-2.32-.65-5.19-1.34-8.74-2-17.59-3.41-43-5.14-75.4-5.14-28.44,0-51.45,1.33-68.54,4C382.57,191.89,392.29,339,392.69,375.74c12.75,1.07,23.63,2.36,32.75,3.68l.54,4.35a13,13,0,0,0,.23,1.3c.06.29.13.57.21.85s.17.54.27.81l.15.4c.06.15.12.31.19.45l.11.26c.14.3.29.59.45.88.05.1.11.19.17.29.15.25.3.5.47.74l.19.27.29.4.37.44.07.09c.12.14.25.28.38.41s.31.32.48.48.28.26.43.39.29.25.44.36a12.9,12.9,0,0,0,1.13.81l.31.18.45.26.13.07.3.15.43.2a12.68,12.68,0,0,0,2.32.79,52.25,52.25,0,0,1,17.36,9.26,41.92,41.92,0,0,1,10.9,13.12A45.74,45.74,0,0,1,469.12,438.93Z"/><path class="cls-5" d="M425.44,379.42c-9.12-1.32-20-2.61-32.75-3.68-.4-36.71-10.12-183.85-140.64-165.32,17.09-2.63,40.1-4,68.54-4,32.44,0,57.81,1.73,75.4,5.14,3.55.69,6.42,1.38,8.74,2a1.23,1.23,0,0,0,0,.19Z"/><path class="cls-5" d="M445.07,103.74c-.09,8.43-.45,22.32-1.73,37.27l0,.53c-1.13,13.22-2.2,25.71-6.52,36A37.86,37.86,0,0,1,428.55,190,45.66,45.66,0,0,1,413,199.79a13.08,13.08,0,0,0-2.8,1.54,153.19,153.19,0,0,0-25-4.94,78.13,78.13,0,0,0,24-17.78c11.81-13.3,15.13-35.36,19.51-59.12q2.06-11.13,3.89-20.59l2.9,1,.75.29c1.45.54,2.8,1.07,4.06,1.56l.75.3.91.37.51.21c.46.18.9.37,1.33.55l.52.21.11,0Z"/><path class="cls-6" d="M162.34,259.71a28.6,28.6,0,0,1-5.53,1c-21.56,1.3-33.36,16.75-41.16,27-2,2.57-3.81,5-5.46,6.77a11.52,11.52,0,0,1-2.38,2.14c-.31.08-.78.18-1.38.29L124.62,254a11.29,11.29,0,0,1,15.56-5.64Z"/><path class="cls-6" d="M466.21,398a64.29,64.29,0,0,0-16.49-11.73,56.69,56.69,0,0,0-10.51-4.14l-.06-.49L418.81,218.78l-.83-6.61c2.14-.87,4.17-1.79,6.07-2.77,28.25-14.5,30.35-41.19,32.58-67.26,1.26-14.66,1.65-28.22,1.76-37A15.25,15.25,0,0,0,449,90.92c-3.62-1.51-8.24-3.32-13.78-5.26-6.49-2.27-14.25-4.72-23.15-7.08a15.25,15.25,0,0,0-18.62,10.66L382.73,128H368.31L361.77,81a15.26,15.26,0,0,0-14-13.1c-8.66-.64-17.73-1-27.18-1s-18.51.36-27.18,1a15.25,15.25,0,0,0-14,13.1L272.88,128H258.45L247.73,89.24a15.25,15.25,0,0,0-18.58-10.67,288.91,288.91,0,0,0-37,12.36,15.22,15.22,0,0,0-9.37,14.25c.11,8.74.5,22.3,1.76,37,2.23,26.07,4.32,52.76,32.58,67.26q2.85,1.47,6.07,2.77l-.83,6.61L202,381.63l-.07.49A64.7,64.7,0,0,0,175,398c-8.76,8.7-16.26,21.76-16.26,40.94v39.4H482.45v-39.4C482.45,419.75,475,406.7,466.21,398Zm-33.43-4.15h0l0,0Zm-.37-.2-.09-.06-.05,0ZM427,387.58c-.07-.15-.13-.3-.19-.45l0-.09C426.86,387.19,427,387.43,427,387.58ZM212.64,190a37.88,37.88,0,0,1-8.24-12.48c-4.32-10.28-5.38-22.77-6.51-36l0-.53c-1.28-14.95-1.63-28.84-1.72-37.27A276.23,276.23,0,0,1,234.38,91l11.22,40.6a13.34,13.34,0,0,0,12.85,9.78h14.43a13.33,13.33,0,0,0,13.2-11.5l6.76-48.58c9.22-.72,18.51-1.09,27.75-1.09s18.54.37,27.76,1.09l6.75,48.58a13.35,13.35,0,0,0,13.21,11.5h14.42a13.34,13.34,0,0,0,12.86-9.78L406.81,91l1.89.49,1.37.37,1.58.43,2.51.71,2.6.75,1,.29c1.49.44,2.94.88,4.34,1.32l1.25.4c3.37,1.08,6.49,2.13,9.31,3.15l2.9,1,.75.29c1.45.54,2.8,1.07,4.06,1.56l.75.3.91.37.51.21c.46.18.9.37,1.33.55l.52.21.11,0,.61.25c-.09,8.43-.45,22.32-1.73,37.27l0,.53c-1.13,13.22-2.2,25.71-6.52,36A37.86,37.86,0,0,1,428.55,190,45.66,45.66,0,0,1,413,199.79a13.08,13.08,0,0,0-2.8,1.54,153.19,153.19,0,0,0-25-4.94c-15-1.91-35.78-3.27-64.65-3.27-50.65,0-76.48,4.18-89.61,8.21a13.53,13.53,0,0,0-2.8-1.54A45.56,45.56,0,0,1,212.64,190Zm23.8,23.81a1.23,1.23,0,0,0,0-.19c2.32-.65,5.19-1.34,8.74-2q3.15-.61,6.63-1.15l.22,0c17.09-2.63,40.1-4,68.54-4,32.44,0,57.81,1.73,75.4,5.14,3.55.69,6.42,1.38,8.74,2a1.23,1.23,0,0,0,0,.19l20.69,165.6c-9.12-1.32-20-2.61-32.75-3.68-19.5-1.64-43.39-2.78-72.1-2.78-47.47,0-81.77,3.13-104.84,6.46ZM469.12,465h-297V438.93a45.86,45.86,0,0,1,4.9-21.5,42.09,42.09,0,0,1,10.91-13.12,52.25,52.25,0,0,1,17.36-9.26h0l2.27-.78h0c22-3.74,58.78-8,113-8s91.08,4.23,113,8a12.68,12.68,0,0,0,2.32.79,52.25,52.25,0,0,1,17.36,9.26,41.92,41.92,0,0,1,10.9,13.12,45.74,45.74,0,0,1,4.91,21.5Z"/></svg>