<svg id="Layer_1" data-name="Layer 1" xmlns="http://www.w3.org/2000/svg" viewBox="0 0 128 128"><defs><style>.cls-1{fill:#565352;}.cls-2{fill:#777474;}.cls-3{fill:#272626;}.cls-4{fill:#f8f8f8;}.cls-5{fill:#d3d3d3;}.cls-6{fill:#464646;}</style></defs><path class="cls-1" d="M21.64,116.84v-7.11a12,12,0,0,1,1.3-5.65c.07-.14.15-.28.23-.42a11.15,11.15,0,0,1,2.64-3,13.77,13.77,0,0,1,4.56-2.43h0a2.67,2.67,0,0,0,1.86-1.61l.07-.21v0h0v-.47h.16a38.13,38.13,0,0,1,2.28-5.33,34.27,34.27,0,0,1,8-10.35c8.11-6.85,26.78-23.73,27-23.9a2.74,2.74,0,0,0-1.84-4.77h-.29l-.27,0-.2-.2a8,8,0,0,1-.65-.71c-.54-.66-1.08-1.42-1.6-2.16l0,0c-1.47-2.07-2.52-3.56-4.38-3.56a3.09,3.09,0,0,0-3,2.5A23.17,23.17,0,0,1,54,55.13a27,27,0,0,1-5.26,5.77,26.27,26.27,0,0,1-5.66,3.6,16.44,16.44,0,0,1-2.69,1,8,8,0,0,1-1.5.27c-5.12.3-8,4-9.85,6.5l0,0c-.49.65-1,1.26-1.39,1.72a3.4,3.4,0,0,1-.73.65l-.07,0-.08,0-.38.08a14.78,14.78,0,0,1-2.67.22,15.83,15.83,0,0,1-7.24-1.66,11.75,11.75,0,0,1-3.32-2.56,13.63,13.63,0,0,1-2.57-4.33c-.23-.62-.39-1.74.87-4.17a60.67,60.67,0,0,1,5.08-7.42l0,0a103.05,103.05,0,0,0,7.29-10.67,28.88,28.88,0,0,0,2.72-7.76,27.21,27.21,0,0,1,1.75-5.51,15.62,15.62,0,0,1,4.47-5,20.4,20.4,0,0,0,4.35-4.48,12.33,12.33,0,0,0,1.76-5.71c.22-2,.33-3,2-4.16a2.19,2.19,0,0,1,1.14-.46,3,3,0,0,1,1.71.85,25.62,25.62,0,0,1,2.87,2.91l.71.79a37.69,37.69,0,0,0,6.38,5.69,2.74,2.74,0,0,0,1.49.45h.7a28.37,28.37,0,0,1,8.73,1.43,46.88,46.88,0,0,1,7.12,3.57,35.07,35.07,0,0,0,5.69,2.88l.5.17-.11.51c-.12.57-.25,1.14-.35,1.6v0c-.76,3.35-1.42,6.24,0,8.16l0,0,.11.15,0,1.4.22,6.35c0,.07,0,.13,0,.18a74.62,74.62,0,0,1,.22,8.36C78,62,78,68.85,78,69.13v0c0,.5-.42,12.5-.94,18.55a8.38,8.38,0,0,0,2,6.3c2.87,3.33,7.92,4.08,9.4,4.22h.06l.06,0a13.69,13.69,0,0,1,4.15,2.21,11.23,11.23,0,0,1,3,3.49,12,12,0,0,1,1.36,5.77v7.11Z"/><path class="cls-1" d="M96.5,109.73v6.52H22.23v-6.52a11.49,11.49,0,0,1,1.23-5.37c.07-.13.14-.27.22-.39a10.54,10.54,0,0,1,2.51-2.89,13.11,13.11,0,0,1,4.34-2.32,3.25,3.25,0,0,0,2.27-2c0-.11.08-.23.11-.34h0a34.91,34.91,0,0,1,2.37-5.65A33.57,33.57,0,0,1,43.1,80.64c8.18-6.92,26.8-23.75,27-23.92a3.33,3.33,0,0,0-2.24-5.8h-.34a7.79,7.79,0,0,1-.61-.67c-.53-.65-1.07-1.41-1.6-2.15C63.79,46,62.6,44.3,60.44,44.3a3.67,3.67,0,0,0-3.56,3,22.83,22.83,0,0,1-3.34,7.55,26.66,26.66,0,0,1-5.15,5.65A26.25,26.25,0,0,1,42.86,64a15.88,15.88,0,0,1-2.59,1,8,8,0,0,1-1.39.25c-5.39.32-8.33,4.18-10.29,6.74-.48.64-.95,1.24-1.36,1.69a2.52,2.52,0,0,1-.6.53,2.42,2.42,0,0,1-.34.07,13.27,13.27,0,0,1-2.56.22,15.22,15.22,0,0,1-7-1.6,11.18,11.18,0,0,1-3.15-2.42,12.94,12.94,0,0,1-2.45-4.14c-.11-.3-.45-1.21.84-3.7a59.84,59.84,0,0,1,5-7.33,102.65,102.65,0,0,0,7.35-10.76,29.71,29.71,0,0,0,2.77-7.9,26.67,26.67,0,0,1,1.71-5.39,15.25,15.25,0,0,1,4.31-4.77,20.72,20.72,0,0,0,4.48-4.61,12.81,12.81,0,0,0,1.85-6c.21-1.9.3-2.69,1.78-3.73a1.69,1.69,0,0,1,.8-.36c.14,0,.54.07,1.34.72a26.1,26.1,0,0,1,2.8,2.84l.71.8a37.78,37.78,0,0,0,6.49,5.78,3.27,3.27,0,0,0,1.82.55h.7a27.64,27.64,0,0,1,8.53,1.39,47.15,47.15,0,0,1,7,3.53,35.76,35.76,0,0,0,5.79,2.92c-.12.57-.25,1.15-.35,1.61-.8,3.48-1.49,6.49,0,8.64l0,.06,0,1.19v0l.22,6.35a1.79,1.79,0,0,0,0,.23,77.38,77.38,0,0,1,.21,8.28c-.11,5.21-.07,11.75-.07,12.49,0,1-.43,12.63-.93,18.52a8.88,8.88,0,0,0,2.11,6.73c3,3.5,8.22,4.28,9.79,4.43a13.3,13.3,0,0,1,4,2.12,10.57,10.57,0,0,1,2.84,3.3A11.36,11.36,0,0,1,96.5,109.73Z"/><path class="cls-2" d="M40.81,25.08a30.38,30.38,0,0,0-9,10.1c-1.74,3.4-2,6.91-3.91,10.34-4.48,8.08-13.26,17-16,19.73a.87.87,0,0,1-.91.2.89.89,0,0,1-.47-.41L8.76,61.61c2.39-5,8.36-11.12,12.72-18.78,2.34-4.1,2.4-9.12,4.4-13.13,2.34-4.69,6.7-6.2,9-9.7,2.44-3.76-.07-7.4,4.52-10.62a4.71,4.71,0,0,1,2.71-1h.18c.2,1.28.45,2.51.7,3.71C44.08,17.47,45.13,22,40.81,25.08Z"/><path class="cls-2" d="M59.88,98.42l-1.59,2.11H58c-9.55,0-24.26,1.94-34.35,3.44a10.54,10.54,0,0,1,2.51-2.89,13.11,13.11,0,0,1,4.34-2.32l.13,0h0A176.79,176.79,0,0,1,57.43,97H58Z"/><path class="cls-3" d="M43.45,32.52A5.48,5.48,0,0,0,38.08,36c-1.09,2.6-2.57,5.14-.87,4.4s1.77-1,2.82-1,1.11.46,3,.46,4.73-2.1,4.73-2.1-.63-5.31-4.26-5.31"/><path class="cls-3" d="M94.07,98.05a1.6,1.6,0,0,0-.95-.83c-.05,0-.25-.09-.6-.19a15.34,15.34,0,0,0-3.5-1.5S79.24,94.9,79.83,88c.54-6.28,1-18.77,1-18.77s0-7,.06-12.46a76.47,76.47,0,0,0-.23-8.7l-.22-6.35-.08-2.73c-2.94-.32,2.44-11.71-.13-11.71a1.63,1.63,0,0,0-.35.05,1.11,1.11,0,0,1-.37,0c-2.45,0-8.84-4.94-13.91-6.66a31.11,31.11,0,0,0-9.61-1.58c-.44,0-.69,0-.69,0a35.22,35.22,0,0,1-5.85-5.25c-2.31-2.54-4.52-5.32-7.14-5.44h-.18a4.71,4.71,0,0,0-2.71,1C34.78,12.6,37.29,16.24,34.85,20c-2.27,3.5-6.63,5-9,9.7-2,4-2.06,9-4.4,13.13C17.12,50.49,11.15,56.59,8.76,61.61c-1,2.12-1.39,4-.72,5.83,3.19,8.5,10.72,10.32,15.69,10.32a16.25,16.25,0,0,0,3.75-.39c3.5-.88,5.12-8.48,11.6-8.87,5.51-.33,18-7.47,21-20.48.07-.27.18-.39.32-.39,1.1,0,4.28,6.82,6.73,6.82a1.22,1.22,0,0,0,.68-.2c-.29.26-18.73,16.93-26.9,23.84C33,84.78,30,94.72,29.73,95.48l0,0a16.06,16.06,0,0,0-7.62,4.92,14,14,0,0,0-3.19,9.28v9.85H99.83v-9.85A13.85,13.85,0,0,0,94.07,98.05ZM35.29,90.8A33.57,33.57,0,0,1,43.1,80.64c8.18-6.92,26.8-23.75,27-23.92a3.33,3.33,0,0,0-2.24-5.8h-.34a7.79,7.79,0,0,1-.61-.67c-.53-.65-1.07-1.41-1.6-2.15C63.79,46,62.6,44.3,60.44,44.3a3.67,3.67,0,0,0-3.56,3,22.83,22.83,0,0,1-3.34,7.55,26.66,26.66,0,0,1-5.15,5.65A26.25,26.25,0,0,1,42.86,64a11.77,11.77,0,0,1-4,1.21c-5.39.32-8.33,4.18-10.29,6.74-.48.64-.95,1.24-1.36,1.69a2.52,2.52,0,0,1-.6.53,12.69,12.69,0,0,1-2.9.29,15.22,15.22,0,0,1-7-1.6,11.18,11.18,0,0,1-3.15-2.42,12.94,12.94,0,0,1-2.45-4.14,1.89,1.89,0,0,1-.12-.82,7,7,0,0,1,1-2.88,59.84,59.84,0,0,1,5-7.33,102.65,102.65,0,0,0,7.35-10.76,29.71,29.71,0,0,0,2.77-7.9,26.67,26.67,0,0,1,1.71-5.39,15.25,15.25,0,0,1,4.31-4.77,20.72,20.72,0,0,0,4.48-4.61,12.81,12.81,0,0,0,1.85-6c.21-1.9.3-2.69,1.78-3.73a1.69,1.69,0,0,1,.8-.36,1.8,1.8,0,0,1,.88.38,4.85,4.85,0,0,1,.46.34,26.1,26.1,0,0,1,2.8,2.84l.71.8a37.78,37.78,0,0,0,6.49,5.78,3.27,3.27,0,0,0,1.82.55h.7a27.64,27.64,0,0,1,8.53,1.39,47.15,47.15,0,0,1,7,3.53,35.76,35.76,0,0,0,5.79,2.92c-.12.57-.25,1.15-.35,1.61-.8,3.48-1.49,6.49,0,8.64l0,.06,0,1.19v0l.22,6.35a1.79,1.79,0,0,0,0,.23,77.38,77.38,0,0,1,.21,8.28c-.11,5.21-.07,11.75-.07,12.49,0,1-.43,12.63-.93,18.52a8.88,8.88,0,0,0,2.11,6.73c.08.09.16.19.24.27a205.16,205.16,0,0,0-21.43-1,194.24,194.24,0,0,0-24,1.32A39.4,39.4,0,0,1,35.29,90.8ZM96.5,116.25H22.23v-6.52a11.49,11.49,0,0,1,1.23-5.37,10.5,10.5,0,0,1,2.73-3.28,13.11,13.11,0,0,1,4.34-2.32l.13,0A176.79,176.79,0,0,1,57.43,97H58c20,0,30.32,2.38,33.21,3.15a11.15,11.15,0,0,1,1.16.81,10.57,10.57,0,0,1,2.84,3.3,11.36,11.36,0,0,1,1.29,5.49Z"/><path class="cls-4" d="M117,109.73v6.52H42.7v-6.52a11.37,11.37,0,0,1,1.23-5.37,10.34,10.34,0,0,1,2.72-3.28A13.31,13.31,0,0,1,51,98.76h0a3.47,3.47,0,0,0,.57-.19h0a3.24,3.24,0,0,0,1.91-2.62l.14-1.09,5.17-41.4s0,0,0,0a3.35,3.35,0,0,0-1.37-3.08,3.64,3.64,0,0,0-.7-.38,11.52,11.52,0,0,1-3.89-2.45,9.54,9.54,0,0,1-2.06-3.12c-1.08-2.57-1.34-5.69-1.63-9v-.13c-.32-3.74-.41-7.21-.43-9.31a68.66,68.66,0,0,1,9.57-3.19l2.8,10.15a3.34,3.34,0,0,0,3.22,2.44h3.6a3.33,3.33,0,0,0,3.3-2.87l1.69-12.15c2.31-.18,4.63-.27,6.94-.27s4.64.09,6.94.27l1.69,12.15a3.33,3.33,0,0,0,3.3,2.87h3.61a3.34,3.34,0,0,0,3.21-2.44l2.81-10.15.47.12.34.09.4.11.62.18.65.18.24.08,1.09.33.31.1c.84.27,1.62.53,2.33.78q-.47,2.37-1,5.15c-1.1,5.94-1.93,11.46-4.88,14.78a19.61,19.61,0,0,1-6,4.45,38.3,38.3,0,0,1,6.24,1.23,3.35,3.35,0,0,0-1.37,3.08c-.57-.16-1.29-.34-2.18-.51a106,106,0,0,0-18.85-1.29,119.35,119.35,0,0,0-17.14,1C95.33,48,97.75,84.76,97.86,93.94c3.18.26,5.9.58,8.18.91l.14,1.09c0,.11,0,.22,0,.33l.06.21.06.2,0,.1,0,.12,0,.06a2.26,2.26,0,0,0,.11.22l0,.07.12.19.05.06a.86.86,0,0,0,.07.1l.09.11,0,0,.1.1.11.12.11.1.11.09.29.2.07.05.12.06,0,0,.07,0,.11,0a3.58,3.58,0,0,0,.58.19,13.21,13.21,0,0,1,4.34,2.32,10.5,10.5,0,0,1,2.73,3.28A11.49,11.49,0,0,1,117,109.73Z"/><path class="cls-5" d="M106,94.85c-2.28-.33-5-.65-8.18-.91-.11-9.18-2.53-46-35.17-41.34a119.35,119.35,0,0,1,17.14-1A106,106,0,0,1,98.68,52.9c.89.17,1.61.35,2.18.51a.06.06,0,0,1,0,0Z"/><path class="cls-5" d="M111,25.94c0,2.1-.11,5.57-.43,9.31v.13c-.28,3.31-.55,6.43-1.63,9a9.38,9.38,0,0,1-2.06,3.12A11.52,11.52,0,0,1,102.93,50a3.64,3.64,0,0,0-.7.38A38.3,38.3,0,0,0,96,49.1a19.61,19.61,0,0,0,6-4.45c3-3.32,3.78-8.84,4.88-14.78q.51-2.78,1-5.15l.72.27.19.07,1,.39.18.08.23.09.13.05.33.14.13.05h0Z"/><path class="cls-6" d="M40.27,64.93a8,8,0,0,1-1.39.25c-5.39.32-8.33,4.18-10.29,6.74-.48.64-.95,1.24-1.36,1.69a2.52,2.52,0,0,1-.6.53,2.42,2.42,0,0,1-.34.07l4.55-10.72a2.82,2.82,0,0,1,3.89-1.41Z"/><path class="cls-6" d="M116.23,99.5a15.89,15.89,0,0,0-4.12-2.94,14.56,14.56,0,0,0-2.62-1l0-.12-5.09-40.72-.2-1.65a15,15,0,0,0,1.51-.69c7.07-3.63,7.59-10.3,8.15-16.81.31-3.67.41-7.06.44-9.24a3.81,3.81,0,0,0-2.35-3.57c-.9-.38-2.05-.83-3.44-1.31-1.62-.57-3.56-1.19-5.79-1.77a3.8,3.8,0,0,0-4.65,2.66L95.37,32H91.76L90.12,20.24A3.79,3.79,0,0,0,86.63,17c-2.17-.16-4.44-.25-6.8-.25S75.2,16.81,73,17a3.8,3.8,0,0,0-3.5,3.27L67.9,32H64.3l-2.69-9.7A3.81,3.81,0,0,0,57,19.64a72.34,72.34,0,0,0-9.24,3.09,3.81,3.81,0,0,0-2.35,3.57c0,2.18.13,5.57.44,9.24.56,6.51,1.08,13.18,8.15,16.81a14.22,14.22,0,0,0,1.52.69l-.21,1.65L50.19,95.41v.12a16.26,16.26,0,0,0-6.75,4,13.86,13.86,0,0,0-4.06,10.23v9.85H120.3v-9.85A13.87,13.87,0,0,0,116.23,99.5Zm-8.35-1Zm-.09,0h0Zm-1.35-1.51,0-.12v0ZM52.84,47.5a9.54,9.54,0,0,1-2.06-3.12c-1.08-2.57-1.34-5.69-1.63-9v-.13c-.32-3.74-.41-7.21-.43-9.31a68.66,68.66,0,0,1,9.57-3.19l2.8,10.15a3.34,3.34,0,0,0,3.22,2.44h3.6a3.33,3.33,0,0,0,3.3-2.87l1.69-12.15c2.31-.18,4.63-.27,6.94-.27s4.64.09,6.94.27l1.69,12.15a3.33,3.33,0,0,0,3.3,2.87h3.61a3.34,3.34,0,0,0,3.21-2.44l2.81-10.15.47.12.34.09.4.11.62.18.65.18.24.08,1.09.33.31.1c.84.27,1.62.53,2.33.78l.72.27.19.07,1,.39.18.08.23.09.13.05.33.14.13.05h0l.15.07c0,2.1-.11,5.57-.43,9.31v.13c-.28,3.31-.55,6.43-1.63,9a9.38,9.38,0,0,1-2.06,3.12A11.52,11.52,0,0,1,102.93,50a3.64,3.64,0,0,0-.7.38A38.3,38.3,0,0,0,96,49.1a129.81,129.81,0,0,0-16.16-.82c-12.66,0-19.12,1-22.4,2a3.64,3.64,0,0,0-.7-.38A11.52,11.52,0,0,1,52.84,47.5Zm5.95,6s0,0,0,0c.58-.16,1.3-.34,2.18-.51.53-.1,1.08-.2,1.66-.29h0a119.35,119.35,0,0,1,17.14-1A106,106,0,0,1,98.68,52.9c.89.17,1.61.35,2.18.51a.06.06,0,0,1,0,0L106,94.85c-2.28-.33-5-.65-8.18-.91-4.88-.41-10.85-.7-18-.7a185.71,185.71,0,0,0-26.21,1.61ZM117,116.25H42.7v-6.52a11.37,11.37,0,0,1,1.23-5.37,10.34,10.34,0,0,1,2.72-3.28A13.31,13.31,0,0,1,51,98.76h0l.57-.19h0a171.41,171.41,0,0,1,28.26-2,169.87,169.87,0,0,1,28.26,2,3.58,3.58,0,0,0,.58.19,13.21,13.21,0,0,1,4.34,2.32,10.5,10.5,0,0,1,2.73,3.28,11.49,11.49,0,0,1,1.22,5.37Z"/></svg>