<svg id="Layer_1" data-name="Layer 1" xmlns="http://www.w3.org/2000/svg" viewBox="0 0 256 256"><defs><style>.cls-1{fill:#565352;}.cls-2{fill:#777474;}.cls-3{fill:#272626;}.cls-4{fill:#f8f8f8;}.cls-5{fill:#d3d3d3;}.cls-6{fill:#464646;}</style></defs><path class="cls-1" d="M43.28,233.68V219.47a24.09,24.09,0,0,1,2.59-11.31c.16-.29.31-.57.47-.83a22.44,22.44,0,0,1,5.29-6.1,27.52,27.52,0,0,1,9.11-4.85h0a5.26,5.26,0,0,0,3.71-3.21,3.52,3.52,0,0,0,.15-.42v-.08h0v-.94H65a76.27,76.27,0,0,1,4.55-10.67c3-5.83,8.21-14.15,15.92-20.68,16.21-13.72,53.56-47.47,53.94-47.8a5.48,5.48,0,0,0-4.25-9.52l-.56,0-.4-.39c-.39-.39-.82-.88-1.29-1.44-1.07-1.3-2.15-2.83-3.2-4.31l0-.06c-2.93-4.14-5-7.12-8.76-7.12a6.17,6.17,0,0,0-6,5,47.18,47.18,0,0,1-6.84,15.49,54.43,54.43,0,0,1-10.54,11.54A52.87,52.87,0,0,1,86.22,129a32.44,32.44,0,0,1-5.38,2,14.77,14.77,0,0,1-3,.53c-10.23.62-15.93,8.08-19.7,13l0,0c-1,1.29-1.92,2.52-2.78,3.44a6.77,6.77,0,0,1-1.47,1.29l-.15.09-.16,0-.76.16a29.43,29.43,0,0,1-5.33.44A31.74,31.74,0,0,1,33,146.72a23.61,23.61,0,0,1-6.63-5.11A27.09,27.09,0,0,1,21.21,133c-.47-1.26-.8-3.48,1.74-8.35,2.23-4.3,5.9-9.18,10.15-14.84l0,0A202,202,0,0,0,47.72,88.38c2.87-5,4.18-10.36,5.43-15.51a53.69,53.69,0,0,1,3.52-11c2.13-4.26,5.43-7,8.92-9.9,3.09-2.57,6.28-5.22,8.71-9,2.7-4.16,3.15-8.19,3.51-11.43.45-3.94.67-5.92,4.07-8.3a4.22,4.22,0,0,1,2.29-.93A6.23,6.23,0,0,1,87.59,24a55,55,0,0,1,5.73,5.83c.47.51.94,1.05,1.43,1.58a74.41,74.41,0,0,0,12.74,11.37,5.44,5.44,0,0,0,3,.91h.34c.14,0,.5,0,1.06,0a56.91,56.91,0,0,1,17.46,2.85c4.35,1.48,9.6,4.49,14.24,7.14,5,2.84,8.44,4.78,11.39,5.76l1,.33-.21,1c-.23,1.12-.49,2.27-.7,3.19v0c-1.53,6.69-2.85,12.47-.1,16.33l.07.09.23.3.08,2.79.43,12.7c0,.14,0,.27,0,.38a156.91,156.91,0,0,1,.43,16.71c-.22,10.74-.13,24.37-.13,25v0c0,1-.83,25-1.87,37.11A16.65,16.65,0,0,0,158.13,188c5.75,6.68,15.85,8.16,18.81,8.46h.12l.12,0a27.6,27.6,0,0,1,8.3,4.43,22.33,22.33,0,0,1,6,7,23.89,23.89,0,0,1,2.72,11.55v14.21Z"/><path class="cls-1" d="M193,219.47v13H44.47v-13a23,23,0,0,1,2.45-10.75c.14-.27.29-.53.44-.79a21.09,21.09,0,0,1,5-5.78,26.06,26.06,0,0,1,8.67-4.62,6.48,6.48,0,0,0,4.54-3.93c.09-.22.17-.46.24-.69h0a72.07,72.07,0,0,1,4.74-11.3c3-5.74,8.07-13.93,15.64-20.33,16.35-13.83,53.59-47.49,54-47.83a6.66,6.66,0,0,0-4.47-11.61,5.32,5.32,0,0,0-.69,0c-.31-.31-.71-.74-1.21-1.35-1.07-1.29-2.15-2.82-3.2-4.3-3-4.26-5.39-7.63-9.72-7.63a7.34,7.34,0,0,0-7.12,5.92,46,46,0,0,1-6.67,15.1,53.55,53.55,0,0,1-10.31,11.28,52,52,0,0,1-11,7,32.36,32.36,0,0,1-5.19,1.93,14.6,14.6,0,0,1-2.77.49C67,131,61.09,138.72,57.19,143.83c-1,1.28-1.9,2.49-2.73,3.39a5.69,5.69,0,0,1-1.19,1.06l-.69.15a28.78,28.78,0,0,1-5.12.42,30.5,30.5,0,0,1-13.94-3.18,22.46,22.46,0,0,1-6.3-4.86,25.74,25.74,0,0,1-4.9-8.28c-.22-.6-.91-2.41,1.68-7.38,2.19-4.22,5.84-9.06,10-14.68A202.38,202.38,0,0,0,48.75,89c3-5.19,4.28-10.59,5.56-15.82a52.31,52.31,0,0,1,3.42-10.78c2-4,5.22-6.7,8.62-9.52,3.15-2.62,6.42-5.33,8.94-9.23,2.85-4.39,3.32-8.57,3.7-11.94.43-3.81.61-5.38,3.57-7.46a3.33,3.33,0,0,1,1.61-.72c.27,0,1.07.14,2.67,1.44a52.38,52.38,0,0,1,5.6,5.69l1.43,1.59a75.83,75.83,0,0,0,13,11.56,6.56,6.56,0,0,0,3.63,1.1h.38c.06,0,.42,0,1,0A55.59,55.59,0,0,1,129,47.65c4.24,1.44,9.45,4.42,14,7.05,4.93,2.82,8.52,4.82,11.59,5.84-.23,1.13-.5,2.3-.71,3.21-1.59,7-3,13,.1,17.29l.08.12.07,2.38v0l.44,12.7a3.71,3.71,0,0,0,0,.47A151.66,151.66,0,0,1,155,113.3c-.2,10.41-.13,23.5-.12,25-.07,1.95-.86,25.28-1.87,37a17.84,17.84,0,0,0,4.21,13.47c6,7,16.45,8.54,19.59,8.86a26.62,26.62,0,0,1,7.93,4.23,21.25,21.25,0,0,1,5.67,6.61A22.75,22.75,0,0,1,193,219.47Z"/><path class="cls-2" d="M81.63,50.16c-6.82,4.93-13.9,12.35-17.92,20.21-3.46,6.78-4,13.82-7.81,20.67-9,16.15-26.52,34.06-32,39.46a1.73,1.73,0,0,1-1.83.39,1.7,1.7,0,0,1-.93-.81l-3.63-6.86C22.29,113.18,34.24,101,43,85.67c4.67-8.21,4.79-18.24,8.8-26.28C56.44,50,65.15,47,69.7,40c4.88-7.52-.14-14.8,9-21.23a9.41,9.41,0,0,1,5.44-1.92h.35c.39,2.54.9,5,1.4,7.4C88.15,34.94,90.26,43.92,81.63,50.16Z"/><path class="cls-2" d="M119.76,196.83l-3.19,4.24h-.52c-19.09.06-48.51,3.88-68.69,6.86a21.09,21.09,0,0,1,5-5.78,26.06,26.06,0,0,1,8.67-4.62l.26-.07h0c11.21-1.74,28.73-3.51,53.54-3.51H116Z"/><path class="cls-3" d="M86.91,65a11,11,0,0,0-10.74,7.06C74,77.28,71,82.35,74.43,80.89S78,79,80.05,79s2.22.91,6.11.91,9.47-4.2,9.47-4.2S94.36,65,87.11,65"/><path class="cls-3" d="M188.15,196.1a3.36,3.36,0,0,0-1.91-1.67l-1.21-.37a30.51,30.51,0,0,0-7-3s-19.57-1.26-18.38-15.17c1.08-12.55,1.9-37.53,1.9-37.53s-.1-13.9.12-24.93a155.58,155.58,0,0,0-.46-17.38l-.43-12.71-.16-5.46c-5.9-.64,4.88-23.43-.27-23.43a2.39,2.39,0,0,0-.7.12,2.83,2.83,0,0,1-.74.09c-4.89,0-17.69-9.88-27.82-13.32a62.17,62.17,0,0,0-19.23-3.15c-.88,0-1.37,0-1.37,0A69.64,69.64,0,0,1,98.8,27.73c-4.62-5.08-9-10.65-14.28-10.88h-.35a9.41,9.41,0,0,0-5.44,1.92c-9.17,6.43-4.15,13.71-9,21.23-4.55,7-13.26,10-17.94,19.4-4,8-4.13,18.07-8.8,26.28C34.24,101,22.29,113.18,17.51,123.22c-2,4.24-2.76,8.11-1.43,11.65,6.37,17,21.43,20.65,31.39,20.65a32.61,32.61,0,0,0,7.5-.79C62,153,65.2,137.79,78.17,137c11-.66,35.9-14.95,42.07-41,.13-.55.35-.79.64-.79,2.19,0,8.56,13.63,13.47,13.63a2.55,2.55,0,0,0,1.34-.38c-.57.52-37.46,33.85-53.79,47.67-15.81,13.38-22,33.25-22.45,34.79l0,.09a32.16,32.16,0,0,0-15.24,9.84,28.07,28.07,0,0,0-6.38,18.57v19.69H199.66V219.47C199.66,207.45,193.78,200.24,188.15,196.1ZM70.57,181.6c3-5.74,8.07-13.93,15.64-20.33,16.35-13.83,53.59-47.49,54-47.83a6.66,6.66,0,0,0-4.47-11.61,5.32,5.32,0,0,0-.69,0c-.31-.31-.71-.74-1.21-1.35-1.07-1.29-2.15-2.82-3.2-4.3-3-4.26-5.39-7.63-9.72-7.63a7.34,7.34,0,0,0-7.12,5.92,46,46,0,0,1-6.67,15.1,53.55,53.55,0,0,1-10.31,11.28,52,52,0,0,1-11,7,23,23,0,0,1-8,2.42C67,131,61.09,138.72,57.19,143.83c-1,1.28-1.9,2.49-2.73,3.39a5.69,5.69,0,0,1-1.19,1.06,25.72,25.72,0,0,1-5.8.57,30.51,30.51,0,0,1-13.95-3.18,22.46,22.46,0,0,1-6.3-4.86,25.74,25.74,0,0,1-4.9-8.28,3.85,3.85,0,0,1-.25-1.64A14.36,14.36,0,0,1,24,125.15c2.19-4.22,5.84-9.06,10-14.68A202.38,202.38,0,0,0,48.75,89c3-5.19,4.28-10.59,5.56-15.82a52.92,52.92,0,0,1,3.42-10.78c2-4,5.22-6.7,8.62-9.52,3.15-2.62,6.42-5.33,8.94-9.23,2.85-4.39,3.32-8.57,3.7-11.94.43-3.81.61-5.38,3.57-7.46a3.33,3.33,0,0,1,1.61-.72,3.55,3.55,0,0,1,1.75.75c.27.18.58.41.92.69a52.38,52.38,0,0,1,5.6,5.69l1.43,1.59a75.83,75.83,0,0,0,13,11.56,6.56,6.56,0,0,0,3.63,1.1h.38c.06,0,.42,0,1,0A55.59,55.59,0,0,1,129,47.65c4.24,1.44,9.45,4.42,14,7.05,4.93,2.82,8.52,4.82,11.59,5.84-.23,1.13-.5,2.3-.71,3.21-1.59,7-3,13,.1,17.29l.08.12.07,2.38v0l.44,12.7a3.71,3.71,0,0,0,0,.47A151.66,151.66,0,0,1,155,113.3c-.2,10.41-.13,23.5-.12,25-.07,1.95-.86,25.28-1.87,37a17.84,17.84,0,0,0,4.21,13.47l.49.54a404.69,404.69,0,0,0-42.86-2,387.12,387.12,0,0,0-48,2.63A80.48,80.48,0,0,1,70.57,181.6ZM193,232.5H44.47v-13a23,23,0,0,1,2.45-10.76,21,21,0,0,1,5.46-6.56,26.06,26.06,0,0,1,8.67-4.62l.27-.07c11.21-1.74,28.73-3.51,53.54-3.51H116c39.9.08,60.65,4.76,66.41,6.3a27.54,27.54,0,0,1,2.34,1.62,21.25,21.25,0,0,1,5.67,6.61,22.75,22.75,0,0,1,2.58,11Z"/><path class="cls-4" d="M233.93,219.47v13H85.4v-13a22.84,22.84,0,0,1,2.45-10.75,21,21,0,0,1,5.45-6.57,26.25,26.25,0,0,1,8.68-4.62h0a6.84,6.84,0,0,0,1.13-.39h0a6.6,6.6,0,0,0,3.82-5.24l.27-2.18,10.35-82.8a.28.28,0,0,1,0-.09,6.68,6.68,0,0,0-2.74-6.15,6.4,6.4,0,0,0-1.41-.77,23.1,23.1,0,0,1-7.77-4.9,18.79,18.79,0,0,1-4.11-6.23c-2.16-5.15-2.7-11.39-3.26-18l0-.27c-.64-7.47-.82-14.41-.86-18.63a139.1,139.1,0,0,1,19.12-6.38l5.61,20.3a6.68,6.68,0,0,0,6.43,4.89h7.21a6.67,6.67,0,0,0,6.61-5.74l3.38-24.3c4.6-.36,9.25-.54,13.87-.54s9.27.18,13.88.54l3.38,24.3a6.66,6.66,0,0,0,6.6,5.74h7.21a6.67,6.67,0,0,0,6.43-4.89l5.61-20.3.95.25.68.18.79.22,1.25.35,1.31.38.48.14c.74.22,1.47.44,2.17.67l.62.19q2.53.81,4.66,1.58c-.61,3.16-1.26,6.58-2,10.29-2.19,11.89-3.85,22.91-9.75,29.56a38.94,38.94,0,0,1-12,8.89,76.19,76.19,0,0,1,12.48,2.48,6.66,6.66,0,0,0-2.74,6.15c-1.16-.33-2.6-.68-4.37-1-8.8-1.71-21.48-2.57-37.7-2.57-14.22,0-25.72.66-34.27,2,65.26-9.27,70.12,64.31,70.32,82.66,6.38.54,11.82,1.18,16.37,1.84l.28,2.18a4.9,4.9,0,0,0,.11.65c0,.14.07.28.11.42s.08.27.13.41l.07.2.1.22.06.13a3.61,3.61,0,0,0,.22.44l.08.14.24.38.09.13.15.2.18.22,0,0,.19.21.24.24.21.19.23.19c.18.14.37.28.56.4l.15.09.23.13.07,0,.15.08.21.1a6.35,6.35,0,0,0,1.16.4,26.15,26.15,0,0,1,8.68,4.62,21,21,0,0,1,5.45,6.57A22.84,22.84,0,0,1,233.93,219.47Z"/><path class="cls-5" d="M212.08,189.71c-4.55-.66-10-1.3-16.37-1.84-.2-18.35-5.06-91.93-70.32-82.66,8.55-1.32,20-2,34.27-2,16.22,0,28.9.86,37.7,2.57,1.77.34,3.21.69,4.37,1,0,0,0,.06,0,.09Z"/><path class="cls-5" d="M221.9,51.87c0,4.22-.22,11.16-.86,18.63l0,.27c-.56,6.61-1.09,12.85-3.25,18A19,19,0,0,1,213.64,95a22.9,22.9,0,0,1-7.77,4.9,6.33,6.33,0,0,0-1.4.77A76.19,76.19,0,0,0,192,98.19a38.94,38.94,0,0,0,12-8.89c5.9-6.65,7.56-17.67,9.75-29.56.69-3.71,1.34-7.13,2-10.29l1.44.53.38.14c.73.27,1.4.53,2,.78l.38.15.45.18.26.11.66.27.26.11.06,0Z"/><path class="cls-6" d="M80.54,129.86a14.6,14.6,0,0,1-2.77.49C67,131,61.09,138.72,57.19,143.83c-1,1.28-1.9,2.49-2.73,3.39a5.69,5.69,0,0,1-1.19,1.06l-.69.15L61.68,127a5.64,5.64,0,0,1,7.78-2.81Z"/><path class="cls-6" d="M232.47,199a32.31,32.31,0,0,0-8.24-5.86,28,28,0,0,0-5.26-2.07l0-.24-10.17-81.43-.42-3.31c1.08-.43,2.09-.89,3-1.38,14.13-7.25,15.18-20.59,16.29-33.63.63-7.33.82-14.11.88-18.48a7.63,7.63,0,0,0-4.69-7.13c-1.81-.75-4.12-1.66-6.89-2.63-3.24-1.13-7.12-2.36-11.58-3.54a7.61,7.61,0,0,0-9.3,5.33L190.73,64h-7.21l-3.27-23.53a7.62,7.62,0,0,0-7-6.55c-4.33-.33-8.86-.51-13.59-.51s-9.26.18-13.59.51a7.61,7.61,0,0,0-7,6.55L135.8,64h-7.21l-5.36-19.4a7.62,7.62,0,0,0-9.29-5.33,143.17,143.17,0,0,0-18.49,6.17,7.62,7.62,0,0,0-4.68,7.13c0,4.37.25,11.15.87,18.48,1.12,13,2.17,26.38,16.3,33.63q1.43.73,3,1.38l-.41,3.31-10.18,81.43,0,.24A32.37,32.37,0,0,0,86.86,199c-4.38,4.36-8.13,10.89-8.13,20.48v19.69H240.59V219.47C240.59,209.88,236.84,203.35,232.47,199Zm-16.71-2.07h0Zm-.19-.1,0,0h0Zm-2.69-3-.1-.22v0ZM105.68,95a18.79,18.79,0,0,1-4.11-6.23c-2.16-5.15-2.7-11.39-3.26-18l0-.27c-.64-7.47-.82-14.41-.86-18.63a139.1,139.1,0,0,1,19.12-6.38l5.62,20.3a6.66,6.66,0,0,0,6.42,4.89h7.21a6.67,6.67,0,0,0,6.61-5.74l3.38-24.3c4.6-.36,9.25-.54,13.87-.54s9.27.18,13.88.54l3.38,24.3a6.66,6.66,0,0,0,6.6,5.74h7.21a6.67,6.67,0,0,0,6.43-4.89l5.61-20.3.95.25.68.18.79.22,1.25.35,1.31.38.48.14c.74.22,1.47.44,2.17.67l.62.19q2.53.81,4.66,1.58l1.44.53.38.14c.73.27,1.4.53,2,.78l.38.15.45.18.26.11.66.27.26.11.06,0,.3.13c0,4.22-.22,11.16-.86,18.63l0,.27c-.56,6.61-1.09,12.85-3.25,18A19,19,0,0,1,213.64,95a22.9,22.9,0,0,1-7.77,4.9,6.33,6.33,0,0,0-1.4.77A76.19,76.19,0,0,0,192,98.19a262.59,262.59,0,0,0-32.33-1.63c-25.33,0-38.24,2.09-44.8,4.11a6.4,6.4,0,0,0-1.41-.77A23.1,23.1,0,0,1,105.68,95Zm11.91,11.91a.28.28,0,0,1,0-.09c1.15-.33,2.59-.68,4.37-1,1-.21,2.15-.4,3.31-.58h.11c8.55-1.32,20-2,34.27-2,16.22,0,28.9.86,37.7,2.57,1.77.34,3.21.69,4.37,1,0,0,0,.06,0,.09l10.34,82.8c-4.55-.66-10-1.3-16.37-1.84-9.75-.82-21.69-1.39-36.05-1.39-23.73,0-40.89,1.56-52.42,3.23ZM233.93,232.5H85.4v-13a22.91,22.91,0,0,1,2.45-10.76,21.08,21.08,0,0,1,5.45-6.56,26.25,26.25,0,0,1,8.68-4.62h0l1.13-.39h0c11-1.87,29.39-4,56.51-4s45.54,2.11,56.52,4a6.35,6.35,0,0,0,1.16.4,26.15,26.15,0,0,1,8.68,4.62,21.08,21.08,0,0,1,5.45,6.56,22.91,22.91,0,0,1,2.46,10.76Z"/></svg>