<svg id="Layer_1" data-name="Layer 1" xmlns="http://www.w3.org/2000/svg" viewBox="0 0 1080 1080"><defs><style>.cls-1{fill:#565352;}.cls-2{fill:#777474;}.cls-3{fill:#272626;}.cls-4{fill:#f8f8f8;}.cls-5{fill:#d3d3d3;}.cls-6{fill:#464646;}</style></defs><path class="cls-1" d="M182.6,985.85v-60c0-17.82,3.68-33.86,10.92-47.68.65-1.22,1.31-2.41,2-3.53A94.5,94.5,0,0,1,217.81,849a115.51,115.51,0,0,1,38.42-20.45l.19,0a22.23,22.23,0,0,0,15.66-13.57q.35-.86.63-1.77v-4.3h1.35a325,325,0,0,1,19.21-45c12.68-24.61,34.62-59.73,67.18-87.28,68.38-57.86,226-200.22,227.54-201.65a23.12,23.12,0,0,0-15.53-40.28,23.76,23.76,0,0,0-2.39.12l-2.35.23-1.68-1.66c-1.65-1.65-3.49-3.69-5.45-6.06-4.54-5.5-9.1-11.95-13.51-18.18l-.18-.25c-12.36-17.46-21.28-30.06-36.94-30.06-10.05,0-21.74,6.53-25.2,21.11a198.83,198.83,0,0,1-28.86,65.34,229.52,229.52,0,0,1-44.44,48.67,224.07,224.07,0,0,1-47.72,30.39A139.8,139.8,0,0,1,341,552.67a65.59,65.59,0,0,1-12.64,2.24c-43.18,2.59-67.22,34.06-83.13,54.89l-.12.15c-4.16,5.46-8.1,10.61-11.72,14.52a28.79,28.79,0,0,1-6.21,5.45l-.61.35-.68.16c-1,.24-2,.46-3.21.68A123.27,123.27,0,0,1,200.24,633c-15.68,0-39-2.43-61.15-14a99.53,99.53,0,0,1-27.95-21.56,113.67,113.67,0,0,1-21.66-36.54c-2-5.29-3.35-14.67,7.33-35.21,9.44-18.14,24.92-38.74,42.85-62.59l.14-.2c19.88-26.45,42.4-56.43,61.53-90,12.12-21.28,17.61-43.72,22.91-65.43,4.17-17,8.09-33,14.83-46.52,9-18,22.9-29.56,37.64-41.8,13-10.81,26.48-22,36.74-37.79,11.38-17.54,13.29-34.54,14.83-48.2,1.87-16.62,2.81-25,17.16-35,3.71-2.61,7-3.93,9.65-3.93,3.66,0,8.51,2.41,14.42,7.15,7.7,6.19,15.71,15.12,24.19,24.57,2,2.19,4,4.44,6,6.67,27.42,30.15,51.16,46.26,53.78,48a22.82,22.82,0,0,0,12.57,3.81c.42,0,.85,0,1.28,0h.15c.59,0,2.1-.07,4.46-.07,11.5,0,41.7,1.17,73.67,12.05,18.33,6.24,40.51,18.92,60.07,30.12,20.95,12,35.59,20.12,48,24.28l4.21,1.41-.9,4.35c-1,4.74-2.09,9.58-3,13.46l0,.17c-6.45,28.25-12,52.62-.4,68.9l.27.38,1,1.28.34,11.76L657,406c0,.59.06,1.1.11,1.58.12,1.17,2.64,27.35,1.8,70.52-.89,45.3-.53,102.79-.52,105.22v.19c-.14,4.29-3.53,105.54-7.9,156.57-1.72,20.13,4,38.5,16.59,53.11,24.23,28.15,66.85,34.42,79.33,35.67l.52,0,.5.16a116.74,116.74,0,0,1,35,18.69,94.6,94.6,0,0,1,25.26,29.43c7.6,14,11.46,30.41,11.46,48.69v60Z"/><path class="cls-1" d="M814.2,925.87v55H187.6v-55c0-17,3.49-32.27,10.35-45.35.59-1.12,1.2-2.22,1.84-3.31A89.47,89.47,0,0,1,221,852.83a110.74,110.74,0,0,1,36.61-19.52,27.84,27.84,0,0,0,20.14-19.47s0,0,0,0h0c.34-1.19,6.47-21.46,20-47.7,12.47-24.22,34-58.74,66-85.75C432.67,622,589.77,480,591.35,478.6a28.12,28.12,0,0,0-18.88-49c-1,0-1.93.05-2.89.14a76.21,76.21,0,0,1-5.12-5.7c-4.49-5.43-9.05-11.89-13.47-18.13-12.72-18-22.77-32.17-41-32.17-12,0-26,7.71-30.06,25a193.86,193.86,0,0,1-28.14,63.69A224.43,224.43,0,0,1,408.29,510a219.42,219.42,0,0,1-46.63,29.7,135.68,135.68,0,0,1-21.9,8.12,61,61,0,0,1-11.67,2.08c-45.48,2.73-70.36,35.32-86.82,56.87-4.13,5.41-8,10.52-11.52,14.28a25,25,0,0,1-5,4.51c-.66.16-1.63.37-2.91.61A118.8,118.8,0,0,1,200.24,628c-15.11,0-37.59-2.33-58.83-13.44a94.57,94.57,0,0,1-26.56-20.48,108.89,108.89,0,0,1-20.69-34.94c-.94-2.53-3.82-10.19,7.09-31.15,9.24-17.78,24.62-38.24,42.42-61.92,20-26.62,42.68-56.79,62-90.73,12.44-21.86,18-44.66,23.42-66.71,4.09-16.7,8-32.47,14.44-45.47,8.51-17,22-28.3,36.37-40.19,13.3-11,27.07-22.49,37.73-38.92,12-18.53,14-36.18,15.61-50.37,1.81-16.06,2.56-22.72,15.06-31.49,2.77-1.94,5.18-3,6.78-3,1.13,0,4.5.6,11.28,6,7.38,5.93,15.26,14.71,23.61,24,2,2.19,4,4.46,6,6.7,28.61,31.45,53.66,48.1,54.71,48.8a27.86,27.86,0,0,0,15.34,4.64c.53,0,1.06,0,1.59,0,.26,0,1.78-.07,4.3-.07,11.25,0,40.8,1.15,72.06,11.78,17.88,6.09,39.86,18.66,59.25,29.75,20.78,11.89,35.93,20.34,48.87,24.66-1,4.77-2.11,9.69-3,13.54-6.71,29.4-12.51,54.8.4,72.92l.37.5.29,10.05a.53.53,0,0,0,0,.13l1.83,53.6c0,.66.07,1.3.14,2,0,.25,2.62,26,1.77,69.87s-.56,99.14-.52,105.35c-.27,8.23-3.63,106.63-7.88,156.3-1.84,21.51,4.31,41.15,17.78,56.8C688.75,826,732.71,832.5,746,833.83a112.43,112.43,0,0,1,33.45,17.86,89.54,89.54,0,0,1,23.94,27.87C810.55,892.86,814.2,908.44,814.2,925.87Z"/><path class="cls-2" d="M344.37,211.59c-28.78,20.81-58.64,52.13-75.58,85.28-14.62,28.61-16.88,58.3-33,87.2C198,452.21,124,527.76,100.84,550.56a7.35,7.35,0,0,1-11.65-1.8L73.88,519.82C94.05,477.48,144.43,426,181.23,361.4c19.71-34.6,20.23-76.94,37.14-110.83,19.72-39.51,56.5-52.28,75.68-81.85,20.58-31.72-.58-62.43,38.1-89.57,8.11-5.7,15.72-8.12,22.94-8.12.49,0,1,0,1.46,0,1.68,10.74,3.81,21.18,5.92,31.25C371.9,147.4,380.77,185.28,344.37,211.59Z"/><path class="cls-2" d="M505.25,830.39l-13.46,17.85h-2.2c-80.52.29-204.64,16.37-289.8,29A89.47,89.47,0,0,1,221,852.83a110.74,110.74,0,0,1,36.61-19.52c.37-.09.73-.18,1.1-.29h0c47.31-7.31,121.22-14.78,225.86-14.78h4.84Z"/><path class="cls-3" d="M366.65,274.37c-18.39,0-36.12,7.85-45.31,29.76s-21.74,43.3-7.36,37.11,14.88-8.19,23.74-8.19,9.37,3.84,25.75,3.84,40-17.72,40-17.72-5.35-44.8-35.95-44.8"/><path class="cls-3" d="M793.75,827.28a14,14,0,0,0-8.06-7c-.45-.14-2.12-.7-5.09-1.56C764.28,809.32,751.11,806,751.11,806s-82.56-5.31-77.54-64c4.54-52.95,8-158.32,8-158.32s-.4-58.65.51-105.18-1.92-73.34-1.92-73.34l-1.84-53.59-.66-23.07c-24.87-2.7,20.59-98.81-1.14-98.81a10.31,10.31,0,0,0-2.94.48,11.39,11.39,0,0,1-3.15.41c-20.63,0-74.6-41.69-117.36-56.23C517.94,162.44,484.9,161.1,472,161.1c-3.69,0-5.76.12-5.76.12s-22.81-15-49.36-44.24c-19.52-21.44-38.18-44.91-60.28-45.91-.48,0-1,0-1.46,0-7.22,0-14.83,2.42-22.94,8.12-38.68,27.14-17.52,57.85-38.1,89.57-19.18,29.57-56,42.34-75.68,81.85-16.91,33.89-17.43,76.23-37.14,110.83C144.43,426,94.05,477.48,73.88,519.82,65.34,537.74,62.21,554,67.82,569c26.91,71.79,90.44,87.12,132.42,87.12a137,137,0,0,0,31.66-3.33c29.51-7.36,43.18-71.5,97.88-74.79,46.46-2.78,151.47-63,177.5-172.79.55-2.31,1.46-3.33,2.69-3.33,9.24,0,36.12,57.53,56.8,57.53a10.71,10.71,0,0,0,5.69-1.64C570,460,414.41,600.6,345.53,658.89c-66.73,56.44-92.79,140.28-94.72,146.75l-.12.4s-37.42,9.3-64.32,41.52c-15.11,18.08-26.89,43.39-26.89,78.31V1009H842.32v-83.1C842.32,875.19,817.5,844.78,793.75,827.28Zm-496-61.17c12.47-24.22,34-58.74,66-85.75C432.67,622,589.77,480,591.35,478.6a28.12,28.12,0,0,0-18.88-49c-1,0-1.93.05-2.89.14a76.21,76.21,0,0,1-5.12-5.7c-4.49-5.43-9.05-11.89-13.47-18.13-12.72-18-22.77-32.17-41-32.17-12,0-26,7.71-30.06,25a193.86,193.86,0,0,1-28.14,63.69A224.43,224.43,0,0,1,408.29,510a219.42,219.42,0,0,1-46.63,29.7c-18.37,8.49-29.6,10-33.57,10.2-45.48,2.73-70.36,35.32-86.82,56.87-4.13,5.41-8,10.52-11.52,14.28a25,25,0,0,1-5,4.51,109.63,109.63,0,0,1-24.49,2.4c-15.11,0-37.59-2.33-58.83-13.44a94.57,94.57,0,0,1-26.56-20.48,108.89,108.89,0,0,1-20.69-34.94,16.17,16.17,0,0,1-1-6.91c.21-4.83,2-12.43,8.13-24.24,9.24-17.78,24.62-38.24,42.42-61.92,20-26.62,42.68-56.79,62-90.73,12.44-21.86,18-44.66,23.42-66.71,4.09-16.7,8-32.47,14.44-45.47,8.51-17,22-28.3,36.37-40.19,13.3-11,27.07-22.49,37.73-38.92,12-18.53,14-36.18,15.61-50.37,1.81-16.06,2.56-22.72,15.06-31.49,2.77-1.94,5.18-3,6.78-3,.89,0,3.16.37,7.38,3.17,1.16.76,2.45,1.71,3.9,2.88,7.38,5.93,15.26,14.71,23.61,24,2,2.19,4,4.46,6,6.7,28.61,31.45,53.66,48.1,54.71,48.8a27.85,27.85,0,0,0,15.33,4.64c.54,0,1.07,0,1.6,0,.26,0,1.78-.07,4.3-.07,11.25,0,40.8,1.15,72.06,11.78,17.88,6.09,39.86,18.66,59.25,29.75,20.78,11.89,35.93,20.34,48.87,24.66-1,4.77-2.11,9.69-3,13.54-6.71,29.4-12.51,54.8.4,72.92l.37.5.29,10.05a.53.53,0,0,0,0,.13l1.83,53.6c0,.66.07,1.3.14,2,0,.25,2.62,26,1.77,69.87s-.56,99.14-.52,105.35c-.27,8.23-3.63,106.63-7.88,156.3-1.84,21.51,4.31,41.15,17.78,56.8.67.77,1.35,1.54,2,2.28-45.66-4.86-105.36-8.6-180.83-8.6-88,0-154.61,5.09-202.47,11.1A336.15,336.15,0,0,1,297.73,766.11ZM814.2,980.85H187.6v-55c0-17,3.49-32.27,10.35-45.35a88.82,88.82,0,0,1,23-27.69,110.74,110.74,0,0,1,36.61-19.52c.38-.09.75-.18,1.12-.29,47.31-7.31,121.22-14.78,225.86-14.78h4.84c168.32.37,255.85,20.1,280.17,26.61a107.09,107.09,0,0,1,9.84,6.83,89.54,89.54,0,0,1,23.94,27.87c7.21,13.3,10.86,28.88,10.86,46.31Z"/><path class="cls-4" d="M986.87,925.87v55H360.28v-55c0-17,3.48-32.27,10.34-45.35a88.82,88.82,0,0,1,23-27.69,110.69,110.69,0,0,1,36.62-19.52l.08,0h0a27.14,27.14,0,0,0,4.8-1.64h0a27.73,27.73,0,0,0,16.11-22.12l1.15-9.19L496.06,451a2.58,2.58,0,0,0,0-.39,28.12,28.12,0,0,0-11.55-25.95,28.48,28.48,0,0,0-5.92-3.25c-13.56-5.44-24.29-12.19-32.78-20.63a80,80,0,0,1-17.37-26.31c-9.1-21.7-11.35-48-13.74-75.94l-.1-1.11c-2.7-31.54-3.45-60.83-3.62-78.61a583.34,583.34,0,0,1,80.69-26.9l23.67,85.64A28.14,28.14,0,0,0,542.5,298.2h30.42A28.13,28.13,0,0,0,600.78,274L615,171.47c19.44-1.53,39.05-2.3,58.55-2.3s39.1.77,58.54,2.3L746.37,274a28.12,28.12,0,0,0,27.86,24.25h30.42a28.13,28.13,0,0,0,27.11-20.63l23.68-85.64,4,1,2.87.78c1.13.3,2.25.6,3.35.91,1.79.49,3.55,1,5.29,1.48l5.49,1.59,2,.6q4.71,1.41,9.15,2.8l2.63.84c7.12,2.27,13.68,4.51,19.65,6.64-2.58,13.33-5.32,27.78-8.21,43.44-9.25,50.12-16.26,96.64-41.16,124.7-15.32,17.26-33.89,29.3-50.58,37.51,23.88,3.05,40.75,6.76,52.66,10.42a28.12,28.12,0,0,0-11.55,25.95c-4.89-1.37-11-2.84-18.44-4.29-37.1-7.19-90.61-10.84-159-10.84-60,0-108.54,2.8-144.59,8.35,275.32-39.09,295.81,271.3,296.67,348.73,26.9,2.26,49.84,5,69.07,7.75l1.15,9.19a27.2,27.2,0,0,0,.47,2.75q.21.88.45,1.77c.17.58.37,1.16.57,1.72l.31.84c.13.33.27.65.4,1l.24.53c.29.64.61,1.26,1,1.87.1.2.22.41.34.61.32.54.65,1.06,1,1.56.13.2.26.38.4.57s.4.56.61.83.51.63.78.93l.16.2c.25.29.52.58.79.87s.66.68,1,1,.59.56.9.83.62.52.94.77a24.58,24.58,0,0,0,2.39,1.69l.64.4c.32.18.64.37,1,.54l.27.14.64.32c.3.16.59.29.9.43a27.32,27.32,0,0,0,4.89,1.66,110.59,110.59,0,0,1,36.62,19.52,88.79,88.79,0,0,1,23,27.69C983.39,893.6,986.87,908.86,986.87,925.87Z"/><path class="cls-5" d="M894.73,800.33c-19.23-2.78-42.17-5.49-69.07-7.75C824.8,715.15,804.31,404.76,529,443.85c36-5.55,84.58-8.35,144.59-8.35,68.42,0,121.93,3.65,159,10.84,7.48,1.45,13.55,2.92,18.44,4.29a2.58,2.58,0,0,0,0,.39Z"/><path class="cls-5" d="M936.13,218.83c-.17,17.78-.93,47.07-3.63,78.61l-.1,1.11c-2.37,27.9-4.63,54.24-13.74,75.94a80,80,0,0,1-17.37,26.31c-8.49,8.44-19.21,15.19-32.78,20.63a28.4,28.4,0,0,0-5.91,3.25c-11.91-3.66-28.78-7.37-52.66-10.42,16.69-8.21,35.26-20.25,50.58-37.51,24.9-28.06,31.91-74.58,41.16-124.7,2.89-15.66,5.63-30.11,8.21-43.44,2.11.76,4.14,1.51,6.1,2.23l1.6.59c3,1.15,5.9,2.26,8.56,3.31l1.58.63,1.92.77,1.07.44,2.81,1.16,1.08.45.25.11Z"/><path class="cls-6" d="M339.76,547.84a61,61,0,0,1-11.67,2.08c-45.48,2.73-70.36,35.32-86.82,56.87-4.13,5.41-8,10.52-11.52,14.28a25,25,0,0,1-5,4.51c-.66.16-1.63.37-2.91.61l38.37-90.52A23.83,23.83,0,0,1,293,523.78Z"/><path class="cls-6" d="M980.73,839.51A135.51,135.51,0,0,0,946,814.76,119.9,119.9,0,0,0,923.79,806l-.13-1L880.74,461.49,879,447.54q6.78-2.73,12.8-5.83c59.6-30.6,64-86.89,68.73-141.88,2.65-30.93,3.48-59.53,3.71-78a32.18,32.18,0,0,0-19.79-30.08c-7.63-3.19-17.37-7-29.06-11.09-13.69-4.8-30.06-10-48.84-14.95a32.18,32.18,0,0,0-39.27,22.5l-22.63,81.82H774.23L760.42,170.8a32.18,32.18,0,0,0-29.51-27.64c-18.27-1.35-37.41-2.12-57.33-2.12s-39.07.77-57.34,2.12a32.18,32.18,0,0,0-29.51,27.64l-13.81,99.27H542.5l-22.63-81.82a32.13,32.13,0,0,0-39.19-22.51,606.62,606.62,0,0,0-78,26.06,32.13,32.13,0,0,0-19.77,30.07c.23,18.44,1.05,47,3.7,78,4.71,55,9.13,111.28,68.73,141.88q6,3.09,12.81,5.83l-1.75,13.95L423.49,805l-.13,1s-31.06,7.72-56.93,33.46c-18.46,18.37-34.28,45.92-34.28,86.37V1009H1015v-83.1C1015,885.42,999.18,857.88,980.73,839.51Zm-70.51-8.75h0l-.07,0Zm-.78-.43-.2-.11-.09-.06Zm-11.36-12.78c-.14-.31-.27-.63-.4-.95,0-.06,0-.12-.07-.19ZM445.85,400.8a80,80,0,0,1-17.37-26.31c-9.1-21.7-11.35-48-13.74-75.94l-.1-1.11c-2.7-31.54-3.45-60.83-3.62-78.61a583.34,583.34,0,0,1,80.69-26.9l23.67,85.64A28.14,28.14,0,0,0,542.5,298.2h30.42A28.13,28.13,0,0,0,600.78,274L615,171.47c19.44-1.53,39.05-2.3,58.55-2.3s39.1.77,58.54,2.3L746.37,274a28.12,28.12,0,0,0,27.86,24.25h30.42a28.13,28.13,0,0,0,27.11-20.63l23.68-85.64,4,1,2.87.78c1.13.3,2.25.6,3.35.91,1.79.49,3.55,1,5.29,1.48l5.49,1.59,2,.6q4.71,1.41,9.15,2.8l2.63.84c7.12,2.27,13.68,4.51,19.65,6.64,2.11.76,4.14,1.51,6.1,2.23l1.6.59c3,1.15,5.9,2.26,8.56,3.31l1.58.63,1.92.77,1.07.44,2.81,1.16,1.08.45.25.11,1.27.53c-.17,17.78-.93,47.07-3.63,78.61l-.1,1.11c-2.37,27.9-4.63,54.24-13.74,75.94a80,80,0,0,1-17.37,26.31c-8.49,8.44-19.21,15.19-32.78,20.63a28.4,28.4,0,0,0-5.91,3.25c-11.91-3.66-28.78-7.37-52.66-10.42-31.61-4-75.48-6.89-136.36-6.89-106.86,0-161.35,8.81-189,17.31a28.48,28.48,0,0,0-5.92-3.25C465.07,416,454.34,409.24,445.85,400.8ZM496.06,451a2.58,2.58,0,0,0,0-.39c4.89-1.37,11-2.84,18.44-4.29q6.65-1.29,14-2.43l.47-.06c36-5.55,84.58-8.35,144.59-8.35,68.42,0,121.93,3.65,159,10.84,7.48,1.45,13.55,2.92,18.44,4.29a2.58,2.58,0,0,0,0,.39l43.64,349.31c-19.23-2.78-42.17-5.49-69.07-7.75-41.14-3.46-91.53-5.87-152.08-5.87-100.14,0-172.5,6.6-221.16,13.62ZM986.87,980.85H360.28v-55c0-17,3.48-32.27,10.34-45.35a88.82,88.82,0,0,1,23-27.69,110.69,110.69,0,0,1,36.62-19.52l.08,0h0l4.79-1.64h0c46.33-7.88,124-16.8,238.42-16.8S865.69,823.76,912,831.65a27.32,27.32,0,0,0,4.89,1.66,110.59,110.59,0,0,1,36.62,19.52,88.79,88.79,0,0,1,23,27.69c6.87,13.08,10.35,28.34,10.35,45.35Z"/></svg>